<?xml version="1.0" encoding="UTF-8"?>
<svg id="Layer_4" data-name="Layer 4" xmlns="http://www.w3.org/2000/svg" viewBox="0 0 500 500">
  <g>
    <path d="M429.54,325.46c.17-.25.27-.45,0,0h0Z" style="fill: #231f20; stroke: #231f20; stroke-miterlimit: 10; stroke-width: 8px;"/>
    <path d="M457.87,268.19c-2.39-11.91-8.07-23.22-15.89-32.49-7.86-9.32-18.24-16.84-29.8-20.83-7.55-2.61-15.36-3.94-23.25-5.04-7.42-1.03-14.93-1.92-22.15-3.99-.71-.2-1.41-.42-2.11-.64-.04-.01-.07-.02-.1-.03-.03-.01-.07-.02-.11-.04-.41-.14-.81-.29-1.22-.44-1.5-.56-2.98-1.18-4.43-1.86-1.39-.65-2.75-1.36-4.07-2.13-.63-.37-1.25-.75-1.86-1.15-.3-.2-.61-.4-.91-.6-.01,0-.06-.04-.12-.08-.11-.08-.31-.23-.35-.25-2.38-1.77-4.58-3.8-6.45-6.11-.44-.55-.87-1.11-1.27-1.69-.39-.56-1.03-1.56-1.18-1.83-.46-.82-1.27-2.56-1.72-3.81-.93-2.56-1.46-5.24-1.67-7.95-.05-.65-.07-1.3-.09-1.95,0-.08,0-.14,0-.18,0-.04,0-.1,0-.19.01-.38.02-.76.03-1.15.06-1.38.18-2.75.35-4.12.73-5.74,2.33-11.34,3.96-16.88,3.1-10.59,7.06-22.21,4.24-33.3-1.34-5.26-4.33-10.25-8.54-13.7-4.53-3.71-10.05-6.01-15.81-7-13.58-2.32-27.56,1.3-38.93,8.89-12.05,8.04-21.08,19.4-30.53,30.18-.13.15-.27.31-.4.46-.02.02-.07.08-.13.15-.05.06-.11.12-.12.14-.13.15-.27.3-.4.45-.58.65-1.17,1.3-1.76,1.94-1.15,1.24-2.32,2.47-3.51,3.67-2.44,2.46-4.98,4.83-7.65,7.04-.63.52-1.26,1.02-1.9,1.52-.26.2-.73.44-.94.71-.11.08-.22.16-.32.23-1.36.97-2.75,1.89-4.18,2.75-.68.41-1.37.81-2.07,1.19-.19.11-.39.21-.58.31-.2.1-.41.2-.61.3-1.42.67-2.88,1.2-4.32,1.8,0,0-.01,0-.02,0-.37.12-.75.23-1.13.34-.82.23-1.65.43-2.48.62,0,0,0,0,0,0-.39.06-.78.13-1.18.18-.84.12-1.68.2-2.53.27-.33,0-.65.02-.98.02-.8,0-1.59-.02-2.38-.07-.36-.02-.73-.05-1.09-.08-.03,0-.05,0-.08,0-.72-.19-1.52-.22-2.26-.36-1.48-.28-2.95-.65-4.39-1.09-.17-.05-.35-.11-.52-.16-.54-.16.32.11.32.11-.22.05-.81-.29-1.03-.37-.74-.28-1.47-.57-2.2-.89-2.89-1.25-5.69-2.76-8.32-4.48-.59-.38-1.17-.78-1.74-1.18-.12-.09-.42-.31-.51-.38-.36-.27-.71-.53-1.06-.81-1.25-.98-2.47-2-3.65-3.07-2.38-2.15-4.6-4.46-6.67-6.91-4.33-5.12-7.77-10.58-10.68-16.45-6.73-13.58-10.72-28.23-15.83-42.44-4.56-12.66-10.27-24.8-18.78-35.32-7.91-9.77-18.47-17.63-30.92-20.3-13.46-2.89-27.77.55-39.37,7.68-11.65,7.17-20.24,17.99-25.13,30.71-5.06,13.16-5.97,27.72-4.18,41.62,1.94,15.01,7.16,29.41,13.43,43.11,6.42,14.01,13.93,27.5,21.01,41.18,5.28,10.2,10.24,20.64,13.99,31.51.12,1.21.26,2.5.61,3.66.54,1.77,1.35,3.5,2.14,5.21.18.68.37,1.35.54,2.03,3.06,11.95,4.51,24.52,3.1,36.82-1.37,2.42-2.73,4.85-4.11,7.28-4.08,7.18-8.23,14.34-12.16,21.61-3.82,7.06-7.34,14.31-9.51,22.07-1.91,6.84-2.76,13.9-2.21,20.99.52,6.61,2.43,12.89,5.83,18.59,3.29,5.51,8.25,9.88,13.97,12.74,12.81,6.39,28.7,5.79,42.1,1.68,4.05-1.24,8.05-2.72,11.91-4.46,1.21-.55,2.39-1.14,3.57-1.75-.36.18-1.16.59-.58.31.2-.1.39-.2.59-.3.9-.46,1.8-.92,2.7-1.39,1.63-.85,3.25-1.74,4.85-2.65,6.49-3.7,12.75-7.78,19.15-11.63,1.58-.95,3.18-1.89,4.79-2.8.78-.44,1.56-.87,2.34-1.3.46-.25.92-.49,1.38-.74.09-.05.18-.09.27-.14,3.36-1.54,6.63-3.19,10.09-4.49.39-.14.77-.28,1.16-.42.89-.29,1.78-.57,2.68-.83.85-.24,1.7-.47,2.56-.68.43-.1.86-.2,1.29-.29.21-.05.43-.1.64-.14.73-.16.2-.07-.23.02,1.59-.45,3.48-.5,5.09-.63.17-.01.34-.03.51-.04.35,0,.71-.03,1.05-.03.96-.01,1.92,0,2.88.05.78.04,1.57.09,2.35.17,0,0,.01,0,.02,0,.44.07.88.12,1.32.19,1.58.25,3.14.59,4.68.99.74.19,1.47.41,2.2.63.03,0,.08.02.13.03.03,0,.04.02.08.03.42.15.84.3,1.26.45,1.5.56,2.97,1.18,4.41,1.87,2.97,1.41,5.83,3.06,8.55,4.9.32.22.64.44.96.66.09.07.15.1.19.13.03.02.08.06.21.15.68.51,1.36,1.02,2.03,1.54,1.29,1.01,2.55,2.06,3.78,3.15,4.98,4.4,9.45,9.36,13.46,14.65,4.53,5.98,8.73,12.35,12.41,18.89,7.25,12.87,14.08,26.27,23.32,37.9,8.16,10.27,18.56,19.5,30.79,24.55,13.69,5.65,29.18,5.8,42.6-.8,11.39-5.6,22.2-15.56,24.18-28.7.98-6.5-.47-12.86-3.49-18.64-3.31-6.35-7.85-11.89-11.75-17.87-1.74-2.66-3.22-5.48-4.4-8.74-.58-1.6-1.06-3.25-1.39-4.93-.15-.79-.27-1.58-.36-2.38-.04-.39-.07-.79-.09-1.18-.01-.2-.02-.39-.02-.59,0-.04,0-.05,0-.08,0-.03,0-.08,0-.16.05-1.68.29-3.35.78-4.97.11-.37.24-.74.38-1.11.06-.16.13-.32.19-.48,0,0,0,0,0,0,.34-.69.73-1.35,1.15-1.99.06-.09.47-.69.78-1.11.02-.02.03-.03.06-.06.11-.11.21-.23.32-.34.25-.26.51-.5.77-.74.23-.21.46-.4.7-.6.02-.02.05-.04.07-.05.47-.31.94-.63,1.43-.91.07-.04.15-.08.22-.12.1-.05.19-.1.29-.14.6-.28,1.21-.52,1.83-.76.19-.06.38-.12.57-.18.74-.22,1.48-.41,2.23-.59.26-.06.51-.12.77-.17.67-.11,1.35-.23,2.02-.33,1.43-.21,2.86-.38,4.29-.53,6.28-.66,12.54-.99,18.74-2.23,12.81-2.57,24.88-8.8,34.78-17.26,9.44-8.07,16.86-18.4,21.37-29.97,4.44-11.38,5.42-23.86,3.02-35.83ZM445.91,284.76c-.03,1.07-.09,2.15-.17,3.22-.16,2.06-.42,4.11-.78,6.14-.74,4.1-1.89,8.12-3.41,12-.36.93-.75,1.85-1.15,2.76,0,0,0,.02-.01.03,0-.02.01-.02.02-.04,0,.02-.02.04-.03.06-.03.07-.07.16-.11.23-.05.12-.11.23-.17.35-.25.53-.51,1.06-.78,1.58-.93,1.83-1.95,3.62-3.04,5.36-1.09,1.74-2.26,3.44-3.5,5.08-.64.85-1.3,1.68-1.97,2.49-.3.36-.6.72-.91,1.08-.14.16-.36.35-.46.53.04-.07.07-.12.1-.17-.07.1-.15.21-.21.28-2.78,3.04-5.82,5.85-9.07,8.38-.1.08-.21.16-.31.24-.42.2-.85.63-1.23.89-.87.61-1.75,1.2-2.64,1.77-1.74,1.11-3.55,2.06-5.34,3.08,1.74-.98.14-.08-.3.13-.48.23-.95.45-1.44.67-.96.44-1.93.85-2.92,1.24-.87.35-1.76.65-2.64.98,2.16-.81.3-.11-.18.04-.56.18-1.12.34-1.69.5-.96.27-1.93.52-2.9.75-.46.11-.92.2-1.38.3-.06.01-.11.02-.15.03-.1.01-.18.02-.22.03-1.98.34-3.98.56-5.98.76-8.88.88-17.84,1.38-26.28,4.6-8.75,3.34-16.3,10.67-16.53,20.52-.24,10.37,5.26,19.07,10.94,27.29,2.67,3.87,5.15,7.43,7,11.38,1.75,3.74,2.87,7.72,3,11.85-.06,2.54-.45,5.06-1.22,7.48-.17.53-.35,1.06-.55,1.58-.12.31-.25.62-.38.93.52-1.29-.36.66-.3.61-.53,1.07-1.1,2.11-1.75,3.12-.68,1.06-1.42,2.08-2.2,3.05-.21.26-.42.51-.64.77-.02.02-.03.03-.04.05-.48.51-.96,1.01-1.46,1.5-.92.9-1.89,1.75-2.9,2.55-.17.13-.35.27-.53.4-.01.01-.03.02-.04.03-.09.07-.19.14-.27.22.04-.04.06-.05.09-.09-.57.4-1.14.78-1.73,1.15-.6.38-1.21.74-1.83,1.09-.1.05-.2.11-.29.16-.1.06-.2.12-.29.16-.12.06-.24.12-.35.19.08-.05.14-.09.21-.13-1.22.58-2.46,1.09-3.72,1.56-.09.02-.18.04-.25.07-.68.2-1.36.39-2.05.55-.22.05-.6.12-.91.16.19-.03.45-.06.78-.1-.81.11-1.62.27-2.43.36-.35.04-.7.07-1.05.1-.05,0-.15.01-.25.02,0,0-.02,0-.03,0-.35,0-.7,0-1.05,0-.75,0-1.5-.04-2.24-.09-.26-.02-.51-.04-.77-.06-.11,0-.22-.02-.33-.03-.66-.23-1.54-.2-2.23-.32-.63-.1-1.26-.22-1.88-.35-1.5-.31-2.98-.69-4.44-1.14-.31-.1-.64-.18-.95-.3-.11-.05-.22-.09-.27-.11-.72-.26-1.44-.54-2.15-.83-1.43-.58-2.83-1.22-4.2-1.92-2.66-1.34-5.22-2.88-7.68-4.56-.26-.18-.52-.36-.79-.55-.08-.06-.17-.12-.21-.15-.63-.47-1.26-.94-1.88-1.43-1.25-.97-2.46-1.98-3.65-3.02-2.28-2-4.46-4.13-6.54-6.34-9.24-9.85-16.2-21.55-23.01-33.13-6.84-11.62-13.36-23.65-22.1-33.99-7.85-9.28-17.59-17.56-28.91-22.22-6.23-2.57-12.85-4.08-19.59-4.31-7.64-.26-15.39,1.03-22.66,3.34-14.28,4.53-26.86,12.44-39.66,20.03-3.01,1.79-6.05,3.54-9.14,5.19-.53.28-3.07,1.4-.85.45-.81.34-1.59.8-2.39,1.18-1.6.76-3.19,1.52-4.81,2.22-1.48.65-2.98,1.25-4.5,1.81-.04.01-.07.03-.11.04-.12.05-.28.11-.42.16-.04.01-.08.03-.12.04-.2.07-.4.13-.59.21.12-.05.24-.09.34-.13-.77.25-1.54.49-2.32.71-1.33.37-2.67.65-4.01.97,2.8-.68.1-.03-.59.08-.75.12-1.5.22-2.25.31-.75.09-1.51.16-2.26.22-.13,0-.25.02-.38.03-.01,0-.02,0-.03,0-1.51.03-3.02.03-4.54-.05-.7-.04-1.4-.1-2.11-.17,0,0,0,0-.01,0-.37-.06-.74-.1-1.11-.16-1.47-.24-2.92-.55-4.36-.93-.46-.12-1.16-.23-1.62-.46-.08-.04-.16-.08-.23-.11-.35-.13-.69-.26-1.03-.39-1.36-.54-2.69-1.17-3.97-1.88-.59-.32-1.16-.67-1.73-1.03-.26-.16-.51-.34-.77-.5-.06-.04-.11-.07-.15-.1-.03-.03-.07-.06-.12-.09-1.18-.91-2.32-1.86-3.38-2.92-1.94-1.93-3.58-4.11-4.98-6.46-2.84-5.17-4.41-10.93-4.93-16.8-.06-.63-.1-1.27-.13-1.91-.02-.38-.03-.76-.04-1.15,0,.02,0-.56,0-.71,0-1.48.08-2.96.21-4.44.31-3.48.97-6.92,1.84-10.3,1.77-6.87,4.44-13.39,6.98-19.99.24-.61.5-1.23.74-1.85,3.08-4.38,5.64-9.13,7.65-14.13.47-1.17.89-2.36,1.3-3.55,1.32-1.61,2.39-3.36,3.34-5.23,2.09-4.13,3.57-8.59,4.28-13.16.2-1.27.35-2.56.48-3.84.34-.75.68-1.5,1.05-2.23.37-.75-.07-1.13-.79-1.25.1-2.22.1-4.45-.03-6.67-.15-2.51-.57-4.79-1.45-7.15-.92-2.45-1.99-4.84-3.08-7.22-1.21-2.64-2.46-5.28-3.56-7.97-.34-.85-.75-1.64-1.17-2.44-2.62-8.57-6.01-16.9-9.76-25.05-8.99-19.54-20.32-37.93-28.61-57.8-7.82-18.73-12.95-39.1-10.08-59.47,1.34-9.52,4.36-18.82,9.54-26.95,2.39-3.76,4.93-6.82,8.05-9.77.78-.73,1.57-1.44,2.39-2.13.43-.36.87-.72,1.31-1.07.2-.16.39-.31.59-.46,0,0,.36-.27.51-.38,1.74-1.26,3.54-2.42,5.41-3.47.44-.24.88-.48,1.32-.71,0,0,.01,0,.02,0,.04-.02.09-.04.15-.07.22-.11.45-.22.67-.33,1.01-.48,2.03-.93,3.07-1.34.46-.18.92-.36,1.39-.53.09-.03.17-.06.26-.09.11-.04.38-.13.51-.17,1.06-.34,2.12-.64,3.2-.9.54-.13,1.08-.24,1.62-.37-1.03.23.28-.05.61-.1,1.09-.18,2.18-.32,3.28-.42.24-.02.49-.04.73-.06,0,0,.42-.02.62-.04.12,0,.23,0,.28,0,.25,0,.49-.01.74-.01,1.17-.01,2.34.03,3.5.11.18.01.9.08,1,.09.44.05.88.11,1.32.18,1.16.18,2.31.42,3.45.7,2.17.53,3.53.99,5.56,1.84,3.77,1.58,7.35,3.66,10.58,6.16,14.68,11.38,22.49,28.49,28.13,45.71,6.33,19.32,10.7,40.04,22.56,56.96,5.17,7.38,11.67,13.82,19.32,18.62,7.81,4.91,17.27,7.57,26.51,7.17,11.02-.47,21.52-4.36,30.57-10.62,8.43-5.83,15.49-13.12,22.21-20.8,1.58-1.8,3.14-3.62,4.7-5.43.76-.88,1.53-1.76,2.29-2.64.23-.26.45-.52.68-.77.03-.03.07-.08.12-.14.41-.46.82-.92,1.23-1.39,3.18-3.54,6.47-7,10.01-10.18.85-.77,1.72-1.52,2.6-2.25.41-.34.83-.68,1.25-1.02.26-.21.53-.42.79-.62.03-.02.09-.07.17-.13-.18.14.55-.41.61-.45.22-.16.44-.31.66-.47.44-.31.88-.61,1.33-.91,1.01-.67,2.04-1.31,3.09-1.91.53-.3,1.06-.6,1.59-.89.05-.03.08-.04.12-.07.04-.02.08-.04.13-.06.93-.43,1.87-.86,2.83-1.23.41-.16.82-.29,1.23-.46-.12.05-.23.09-.33.13.08-.03.15-.05.21-.07,1-.31,2.01-.58,3.03-.81.11-.02.22-.05.33-.07.34-.06.68-.12,1.02-.17.98-.15,1.97-.26,2.96-.34.11,0,.21-.02.32-.02.39,0,.79-.03,1.18-.03.98,0,1.96.03,2.94.1.39.03.81.09,1.21.11.14.02.28.04.42.06.95.15,1.9.33,2.83.55.46.11.93.23,1.39.36.2.06.4.12.61.18.23.07.34.08.38.07.27.11.56.26.67.3.49.19.97.39,1.44.6.75.34,1.49.71,2.22,1.12.4.23.8.46,1.19.71.17.11.34.22.52.34.06.04.1.07.15.09,0,0,0,0,0,0,1.41,1.15,2.76,2.28,3.95,3.67.58.68,1.12,1.38,1.61,2.12.23.35.45.7.67,1.06.02.06.43.81.49.93.82,1.66,1.46,3.41,1.9,5.21.45,1.82.7,3.68.8,5.55.02.35.03.69.03,1.04,0,.08,0,.7-.01.86-.03,1.01-.1,2.03-.2,3.03-.39,3.87-1.24,7.69-2.24,11.45-2.07,7.86-4.84,15.55-6.23,23.58-1.36,7.86-1.29,16.29,2.51,23.49,4.21,7.97,11.45,13.6,19.55,17.31,9.23,4.22,19.24,5.8,29.21,7.17,5.47.75,10.94,1.48,16.33,2.67,1.29.28,2.57.59,3.84.94.6.16,1.2.33,1.79.51.3.09.59.18.89.27.26.08.52.16.79.25-.17-.06-.34-.11-.51-.17.21-.19,2.53.92,2.85,1.05,1.05.42,2.09.86,3.11,1.33,1.83.84,3.62,1.78,5.37,2.8.92.54,1.83,1.1,2.73,1.68.4.26.79.52,1.19.79.2.13.39.27.59.4.06.04.1.07.14.1.04.03.09.07.15.11,3.35,2.47,6.49,5.21,9.36,8.24,2.87,3.03,5.48,6.31,7.79,9.78.59.89,1.17,1.8,1.72,2.72.22.37.44.73.65,1.1.05.08.11.2.13.24.17.31.34.63.51.94.99,1.84,1.89,3.72,2.71,5.64,3.3,7.7,5.23,16.01,5.47,24.39,0,.09.01.92.02.99,0,.48,0,.96-.02,1.44Z" style="fill: #231f20; stroke: #231f20; stroke-miterlimit: 10; stroke-width: 8px;"/>
    <path d="M356.91,443.35s.03-.02.04-.03c.04-.03.09-.07.14-.1.01-.01.02-.02.04-.03.37-.31.74-.73-.22.16Z" style="fill: #231f20; stroke: #231f20; stroke-miterlimit: 10; stroke-width: 8px;"/>
    <path d="M440.27,309.15c.04-.08.07-.15.11-.23,0,0,0-.01,0-.02-.18.38-.17.36-.11.24Z" style="fill: #231f20; stroke: #231f20; stroke-miterlimit: 10; stroke-width: 8px;"/>
    <path d="M122.92,368.4c.08-.03.17-.05.25-.08.18-.06.37-.13.55-.2.29-.12.33-.17-.8.27Z" style="fill: #231f20; stroke: #231f20; stroke-miterlimit: 10; stroke-width: 8px;"/>
    <path d="M301.27,107.01c-.58.2-1.41.56,0,0h0Z" style="fill: #231f20; stroke: #231f20; stroke-miterlimit: 10; stroke-width: 8px;"/>
    <path d="M352.63,445.98s.08-.03.12-.05c0,0,.01,0,.02-.01.1-.05.19-.11.29-.16.43-.25.79-.51-.43.22Z" style="fill: #231f20; stroke: #231f20; stroke-miterlimit: 10; stroke-width: 8px;"/>
    <path d="M345.71,448.32c-.84.11-.51.08,0,0h0Z" style="fill: #231f20; stroke: #231f20; stroke-miterlimit: 10; stroke-width: 8px;"/>
  </g>
  <g>
    <path d="M249.98,277.99s.02,0,.04-.02c.02,0,.04-.02.06-.03-.06.02-.14.05-.22.08.04-.01.08-.02.11-.03Z" style="fill: #231f20; stroke: #231f20; stroke-miterlimit: 10; stroke-width: 8px;"/>
    <path d="M271.26,258.53c-.28-2.75-1.16-5.4-2.12-7.98-.98-2.62-1.95-5.25-2.94-7.87-2.13-5.58-1.39-11.79-3.49-17.36-.82-2.16-2.04-4.26-3.3-6.18-1.37-2.08-3.1-3.87-5-5.47-8.97-7.57-20.8-8.36-31.96-9.41-3.11-.29-6.15-.52-9.28-.43-3.02.09-5.99.43-8.95,1.02-3.78.75-7.53,2.14-10.77,4.26-5.93,2.14-10.94,7.28-12.74,13.27-1.37,4.56-.95,9.79,1.1,14.08,2.31,4.83,6.29,7.99,11,10.35,4.37,2.19,9.03,4.15,12.44,7.5,3.33,3.27,6.02,7.2,8.3,11.25,2.19,3.9,4.29,8.14,7.39,11.41,3.72,3.92,8.24,6.94,13.49,8.37,12.28,3.34,25.97-1.11,33.11-11.81,2.96-4.44,4.27-9.7,3.73-14.99ZM259.61,263.18c-.07,1.09-.24,2.17-.48,3.24-.12.53-.25,1.06-.41,1.58-.03.11-.12.39-.16.49-.05.13-.09.25-.14.38-.41,1.01-.9,2-1.45,2.94-.28.47-.59.92-.89,1.38,0,0,0,0,0,0-.02.02-.02.03-.04.05-.16.19-.31.38-.46.57-.31.37-.64.73-.98,1.08-.21.22-.43.43-.65.64-.17.16-.26.26-.29.3-.5.43-1.1.77-1.66,1.13.02.02-.15.17-.35.26-.04.02-.07.04-.11.06-.06.04-.13.08-.18.13.05-.04.09-.07.13-.1-.18.09-.36.18-.54.27-.28.13-.55.25-.84.37.08-.02.13-.03.14-.02,0,0-.1.02-.24.07-.76.31-.44.16-.11.03-.52.15-1.45.43-1.53.45-.17.04-.39.07-.58.12-.46.06-.91.12-1.37.16-.33.03-.66.03-.99.06-.02,0-.03,0-.05,0-.03,0-.05,0-.08,0-.78-.02-2.02.07-2.9-.16-.04-.04-.16-.1-.33-.15-.32-.08-.64-.15-.97-.23-.64-.17-1.27-.36-1.9-.58-.25-.09-.5-.18-.74-.28-.09-.04-.29-.12-.43-.18-.41-.19-.81-.39-1.2-.6-1.03-.56-2.01-1.2-2.95-1.91-.36-.27-.7-.55-1.05-.83-.08-.08-.56-.51-.7-.63-.81-.76-1.54-1.59-2.31-2.38-1.52-1.54-2.96-3.13-4.34-4.8-5.54-6.69-10.19-14.66-17.87-19.17-2.13-1.25-4.39-2.24-6.65-3.23-.14-.21-.34-.4-.63-.56-3.77-2.17-6.73-5.64-8.21-9.75-.75-2.06-.61-4.53-.27-6.66.36-2.25.91-4.27,1.78-6.12.46-.98,1.01-1.91,1.61-2.82.05-.08.09-.13.12-.18.17-.23.35-.45.53-.67.41-.49.83-.96,1.28-1.41.14-.14,1.06-.92.89-.81.32-.25.64-.5.98-.73.21-.14.43-.27.64-.42.04-.03.07-.05.1-.07.6-.32,1.2-.64,1.82-.92.31-.14.63-.26.95-.4.08-.03.16-.08.23-.12.37-.13.79-.2,1.14-.3.6-.16,1.21-.31,1.81-.43.04,0,.08-.02.12-.03.3-.08.64-.09.93-.13,2.53-.35,5.06-.39,7.61-.49,2.74-.11,5.52-.28,8.25-.5.73-.06,2.05-.03,3.15-.01,1.56.03,3.12.1,4.67.21,4.97.36,10.08,1.2,14.53,3.55,3.85,2.04,7.25,4.89,9.59,8.59,2.71,4.3,1.65,9.69.97,14.38-.42,2.89-.53,5.78-.2,8.68.3,2.57,1.3,4.98,2.15,7.41.84,2.42,1.65,4.88,1.99,7.43.04.28.06.57.1.85,0,.07.02.13.03.18,0,.02,0,.05,0,.09.01.55,0,1.09-.03,1.64Z" style="fill: #231f20; stroke: #231f20; stroke-miterlimit: 10; stroke-width: 8px;"/>
    <path d="M251.52,277.28c.15-.11.3-.22.47-.32-.01-.01-.16.07-.52.35.02,0,.03-.02.05-.03Z" style="fill: #231f20; stroke: #231f20; stroke-miterlimit: 10; stroke-width: 8px;"/>
  </g>
  <path d="M201.31,28.98c-1.53-10.03-10.71-17.27-20.7-17.43-1.39-.02-3.52.46-4.01,2,0,.02,0,.03-.01.05-.18.06-.36.12-.54.18-4.36,1.55-7.97,4.65-10.11,8.76-4.06,7.82-2.73,18.48,2.47,25.49,2.69,3.62,6.59,5.96,11.04,6.63,4.53.68,9.1-.91,12.91-3.28,3.48-2.16,6.28-5.45,7.79-9.27,1.64-4.14,1.82-8.76,1.15-13.14ZM198.07,37.63c-.85,3.63-2.71,7.07-5.59,9.49-1.2,1.01-2.57,1.86-4.02,2.46-.48.2-1.3.42-1.96.56-.03,0-.03,0-.05.01-.03,0-.07,0-.13.02-.17.02-.33.05-.5.06-.11.01-.94.07-.92.08-.19,0-.38,0-.56,0,.03,0-.73-.01-.86,0-.34-.01-.68-.03-1.02-.07-.63-.07-1.25-.21-2.07-.49-1.41-.49-2.77-1.36-3.86-2.38-5.31-4.98-7.03-13.05-5.96-20.04.59-3.83,2.11-7.57,5.44-9.8,1.39-.93,2.91-1.36,4.53-1.73.51-.12,1.02-.17,1.52-.19,6.16.8,11.95,5,14.65,10.54,1.79,3.67,2.29,7.52,1.36,11.5Z" style="fill: #231f20; stroke: #231f20; stroke-miterlimit: 10; stroke-width: 8px;"/>
  <path d="M208.73,85.59c-.16-2.13-.64-4.22-1.34-6.23-.74-2.15-1.7-4.22-2.8-6.21-.98-1.79-2.15-3.59-3.83-4.8-1.64-1.18-3.68-1.47-5.65-1.24-1.5.17-3.03.56-4.38,1.24-.53.27-1.22.57-1.36,1.14-1.34.57-2.64,1.24-3.87,2.03-3.09,2-5.7,4.77-7.32,8.1-3.08,6.34-2.43,14.67,2.64,19.78,2.8,2.83,6.68,4.55,10.67,4.58,4.58.04,10.18-1.34,13.62-4.56,2.3-2.16,3.3-5.2,3.75-8.25.28-1.88.02-3.69-.12-5.57ZM204.54,91.32c-.69,2.93-2.36,5.58-4.59,7.59-.47.43-1.31,1.19-2.01,1.64-.46-.07-.97-.21-1.23-.26-2.7-.55-5.27-2.26-7.1-4.29-3.77-4.19-6.03-9.96-5.01-15.62.51-2.83,1.94-5.57,3.91-7.65.96-1.01,2.01-1.96,3.21-2.66.51-.3,1.03-.53,1.57-.73.47.12.97.16,1.43.36,1.56.69,2.83,1.94,3.87,3.27,2.06,2.64,3.78,5.67,4.97,8.81,1.19,3.14,1.75,6.24.97,9.55Z" style="fill: #231f20; stroke: #231f20; stroke-miterlimit: 10; stroke-width: 8px;"/>
  <path d="M215.47,124.86c-.55-2.57-1.62-5.24-3.73-6.9-1.57-1.23-3.37-1.65-5.19-1.51-1.99-.22-4.01.71-5.74,1.67-2.28,1.28-4.22,3.17-5.85,5.19-3.3,4.1-3.68,11.2,0,15.2,1.94,2.11,4.56,3.5,7.45,3.54,1.76.02,3.4-.32,5.06-.91-.69.25.47-.16.76-.28.26-.11.51-.22.76-.35.74-.37,1.41-.79,2.06-1.3,4.19-3.3,5.51-9.29,4.42-14.36ZM207.99,136.51c-.48.46-1.05.83-1.49,1.02-.02,0-.03,0-.05,0-.15-.04-.33-.09-.35-.09-1.18-.46-2.42-1.29-3.36-2.54-1.06-1.4-1.82-2.9-2.22-4.61-.45-1.89-.24-3.56.11-5.45.16-.88.16-1.85.59-2.65.43-.8,1.14-1.52,1.82-2.1.23-.2.49-.37.74-.54.28-.02.54-.06.74-.12.6-.18.98,0,1.59.15.85.21,1.59.46,2.33.93,1.66,1.06,2.74,2.72,2.99,4.66.49,3.76-.65,8.65-3.45,11.34Z" style="fill: #231f20; stroke: #231f20; stroke-miterlimit: 10; stroke-width: 8px;"/>
</svg>