<?xml version="1.0" encoding="UTF-8"?>
<svg id="Layer_3" data-name="Layer 3" xmlns="http://www.w3.org/2000/svg" viewBox="0 0 500 500">
  <path d="M490.54,10.35c.05-.1.09-.2.11-.31,0-.02,0-.03,0-.04,0,0,0,0,0-.01,0-.09-.01-.18-.02-.27-.04-.09-.09-.17-.14-.26,0,0,0,0,0,0,0-.01-.01-.02-.02-.03,0,0,0,0,0,0,0-.01-.01-.02-.02-.04.13-.2.24-.41.3-.64.02-.09-.1-.13-.16-.13-.08,0-.21.04-.24.12-.04.12-.1.24-.17.35-.01.02-.03.04-.04.07-.07-.04-.15-.08-.23-.11-.01,0-.02,0-.03,0-.01,0-.03,0-.05-.01,0,0-.01,0-.02,0,0,0,0,0,0,0-.06-.02-.13-.03-.23-.05-.12-.03-.15-.04-.24-.05-.03,0-.05,0-.08-.01.05.01.1.02.14.03-.21-.05-.42-.07-.63-.04-.07,0-.13.02-.19.03,0,0,0,0,0,0,.05,0,.11-.02.16-.03-.13.02-.25.03-.38.03.01,0,.03,0,.04,0-.05,0-.1,0-.15,0-.02,0-.03,0-.05,0-.15,0-.29,0-.44.03-.11-.16-.21-.31-.3-.48-.07-.16-.14-.33-.18-.51-.02-.1-.03-.2-.05-.3-.01-.06-.02-.13-.03-.19,0-.15,0-.31.03-.46.02-.19-.08-.35-.23-.44,0,0-.02-.01-.03-.02-.2-.12-.43-.11-.65-.07-.03,0-.06.01-.09.02-.21.06-.42.17-.57.33-.05.06-.09.13-.14.2-.14.21-.22.45-.28.69-.02.09-.04.18-.05.27-.01.1,0,.21.01.31,0,.05,0,.09.01.14.06.43.24.84.47,1.2.1.16.23.29.37.42-.01.02-.03.04-.05.07-.08.15-.13.32-.17.49-.04.16-.04.34-.01.5,0-.08-.01-.17-.02-.25-.02.08-.02.17-.02.26,0,.17,0,.34.04.5.01.09.04.18.07.26.05.15.13.31.21.45-.03-.07-.07-.14-.1-.21.08.19.18.39.31.55.09.11.2.21.31.3.05.04.11.08.17.12.29.16.57.26.9.3.04,0,.08,0,.11,0,.14,0,.28.01.42,0,.18-.02.36-.05.54-.1.34-.1.67-.25.96-.46.19-.14.38-.31.52-.51.09-.13.19-.26.27-.4.07-.13.11-.28.14-.42.04-.14.05-.29.05-.44-.01-.24-.03-.46-.13-.68-.02-.03-.04-.07-.06-.1Z" style="fill: #231f20;"/>
  <g>
    <path d="M218.31,274.04s.05,0,.07,0c.04,0,.07-.01.11-.02.1-.02.19-.05.29-.07.5-.15.8-.33-.47.1Z" style="fill: #231f20;"/>
    <path d="M215.18,274.17c.48.04,1.26-.04,0,0h0Z" style="fill: #231f20;"/>
    <path d="M253.9,239.13c-2.6-5.29-7.78-8.28-12.36-11.63-2.11-1.54-4.22-3.21-5.75-5.36-1.51-2.11-2.1-5.28-1.88-8.04.3-3.61.9-7.09-.44-10.57-1.11-2.89-2.73-5.5-5.02-7.61-4.99-4.61-11.94-6.8-18.67-6.47-8.12.4-15.49,3.39-22.41,7.44-.57.16-1.11.38-1.53.6-5.63,2.88-9.79,8.59-11.22,14.72-.35,1.5-.6,3.33-1.22,4.5-.37.7-.93,1.56-1.12,2.34-.19.79-.1,1.61-.03,2.76.12,1.84.45,3.28,1.5,4.83.95,1.39,2.11,2.61,3.34,3.76,2.85,2.64,6.08,4.92,8.29,8.16,1.62,2.92,2.08,6.16,2.03,9.46-.35,6.88-2.51,14.34.23,20.96,2.83,6.84,9.62,10.71,16.6,12.12,4.17.85,8.63.72,12.79-.07,5.19-.99,10.33-2.65,14.9-5.32,6.81-3.97,12.72-9.31,17.69-15.4,4.66-5.7,7.71-14.12,4.25-21.18ZM242.7,257.54c-1.75,2.76-3.72,4.79-6.24,6.7-1.3.99-2.64,1.9-3.98,2.82-.14.1-.28.19-.42.29.26-.18-.56.38-.67.45-.73.48-1.48.95-2.23,1.41-.88.53-1.77,1.05-2.67,1.54-.26.14-.52.28-.78.41-.26.14-.52.27-.78.4-.65.32-.52.26.38-.17.05.26-4.67,2.01-5.06,2.16-.04.02-.07.03-.11.04-.28.08-.56.14-.83.21-.17.05-.35.08-.53.12-.09.03-.2.05-.29.07-.13.03-.27.06-.39.1.08-.03.14-.05.21-.07-.39.06-.78.1-1.17.16-.02,0-.03,0-.05,0-.04,0-.06,0-.1,0-.69.02-1.39-.06-2.08-.03.1,0,.19,0,.27-.01-.03,0-.05,0-.08,0-.35-.04-.69-.09-1.04-.15-.34-.06-.69-.13-1.03-.2-.13-.03-.27-.06-.4-.09-1.32-.44-2.6-.92-3.83-1.57-.19-.1-.38-.21-.56-.32-.02-.02-.57-.36-.69-.45-.6-.42-1.18-.88-1.72-1.38-1-.9-1.86-1.93-2.61-3.05-1.65-2.93-2.17-6.18-2.13-9.53.36-6.87,2.75-14.31.41-21.01-2.41-6.9-9.4-9.94-13.14-15.85.18.29.35.57.53.86-.85-1.41-1.96-2.61-2.87-3.99-.22-.37-.44-.73-.66-1.1.06.09-.35-.64-.39-.69-.18-.2-.42-.38-.62-.57-.79-.74-1.12-1.12-1.42-2.15-.52-1.79-.18-3.78.27-5.58.89-3.54,2.93-6.66,6.06-8.45.39-.22.82-.6,1-.99,3.62-1.64,7.24-3.27,11.12-4.3,5.35-1.43,10.69-1.29,15.7,1.19,4.21,2.08,8.48,5.98,9.38,10.79,1.09,5.82-3.38,11.43-1.16,17.12,3.33,8.54,14.17,10.66,18.57,18.21,3,5.16,1.91,11.78-1.17,16.63Z" style="fill: #231f20;"/>
  </g>
  <g>
    <path d="M131.66,384.79s0,0,.01,0c-.01,0-.02,0-.03,0,0,0,.01,0,.02,0Z" style="fill: #231f20;"/>
    <path d="M424.86,203.19c-6.26-10.07-17.69-14.72-27.51-20.48-5-2.93-9.88-6.28-13.62-10.77-4.04-4.85-6.43-10.91-7.41-17.11-2.12-13.34,1.84-26.87,8.02-38.61,7.16-13.61,16.94-25.64,24.19-39.21,6.34-11.85,10.47-25.58,8.68-39.12-.85-6.42-3.2-12.5-7.13-17.66-3.78-4.96-8.85-8.59-14.51-11.13-11.81-5.29-25.54-5.49-38.16-3.79-13.51,1.81-26.74,5.88-39.12,11.54-12.12,5.54-23.41,12.83-33.53,21.49-9.98,8.54-18.7,18.5-25.83,29.53-7.97,12.33-13.18,25.98-18.5,39.58-5.32,13.6-10.92,27.71-20.46,38.98-4.37,5.15-9.43,9.71-15.16,13.3-1.27.8-2.53,1.5-3.96,2.22-1.67.84-2.3,1.12-3.97,1.75-.35.13-.7.26-1.06.39-.12.04-.63.21-.78.26-.71.22-1.42.42-2.15.6-.11.03-.51.12-.71.17-.14.03-.38.08-.44.09-.18.04-.36.07-.54.1-.36.07-.73.13-1.09.18-.18.03-.36.05-.55.08-.04,0-.39.05-.49.07-2.66.32-5.78.27-8.81-.22-3.06-.5-6.08-1.49-8.9-2.77-5.49-2.5-10.31-6.36-14.6-10.55-9.18-8.97-16.27-19.82-25.34-28.9-9.99-9.98-22.55-17.77-36.42-20.89-13.6-3.06-28.27-1.28-40.66,5.19-5.89,3.07-11.27,7.25-15.35,12.53-3.99,5.17-6.75,11.15-8.16,17.53-2.9,13.12-.55,26.98,4.18,39.38,5.17,13.56,13.66,25.46,22.11,37.13,5.37,7.41,10.86,14.82,15.71,22.61,2.13,3.8,3.96,7.75,5.51,11.82.67,1.77,1.31,3.56,1.91,5.36.67,3.6,1.26,7.22,1.65,10.88.31,3,.78,5.97,1.14,8.96-.02,1.71-.04,3.4.1,5.11.06.71.11,1.41.17,2.12-1.58,3.65-3.14,7.3-4.62,10.99-.82,2.05-1.54,4.16-2.43,6.18-.81,1.84-1.23,3.98-1.75,5.93-1.06,3.96-1.97,7.95-2.68,11.98-2.52,14.27-2.49,29.27,2.12,43.13,4.23,12.68,12.51,24.01,24.38,30.48,12.28,6.69,26.83,7.86,39.87,2.62,6.97-2.8,13.1-7.09,19.1-11.53,2.87-2.12,5.72-4.26,8.69-6.24,1.38-.92,2.66-1.73,3.96-2.44.73-.4,1.48-.78,2.23-1.14.35-.17.7-.33,1.05-.49.03-.01.04-.02.07-.03.22-.09.44-.18.65-.27.78-.32,1.57-.61,2.36-.88.12-.04.25-.08.37-.13.03,0,.05-.01.09-.03.43-.13.86-.25,1.3-.37.37-.1.74-.19,1.12-.28.79-.19.25-.05.08-.02.19-.04.37-.07.56-.11.37-.07.75-.13,1.12-.19.14-.02.85-.11.85-.11,2.81-.27,5.55-.12,8.44.81,6.36,2.05,10.34,7.42,12.88,13.34,2.58,6.01,4.12,12.4,6.82,18.36,2.63,5.81,5.99,11.26,9.89,16.3,7.76,10.02,17.79,18.26,29.1,23.96,11.69,5.89,24.46,8.95,37.55,8.95,13.81,0,27.64-3.47,40.05-9.46,11.88-5.73,22.66-14.07,30.77-24.51,8.41-10.83,14.22-24.14,14.11-38.04-.05-6.72-1.68-13.41-5.15-19.19-3.17-5.28-7.58-9.64-12.09-13.77-8.79-8.03-18.97-16.19-20.32-28.89-1.39-13.13,6.98-25.49,16.64-33.56,5.33-4.46,11.54-7.69,17.82-10.58,6.6-3.04,13.7-5.78,20.57-8.84,6.78-3.02,13.55-6.39,19.55-10.8,5.34-3.93,9.94-8.79,13.57-14.34,6.63-10.15,9.57-23.67,2.83-34.53ZM421.13,221.46c-.6,6.14-3.12,12.05-6.43,17.2-3.33,5.17-7.72,9.78-12.73,13.36-5.84,4.16-12.37,7.29-18.92,10.15-6.44,2.8-13.73,5.66-20.37,8.78-6.58,3.09-12.98,6.62-18.58,11.28-9.77,8.13-18.22,19.97-18.04,33.17.18,12.84,9.55,21.8,18.43,29.8,4.45,4.01,9,8.05,12.51,12.94,3.82,5.32,6,11.63,6.58,18.14,1.19,13.51-4.04,27.29-11.94,38.08-7.48,10.21-17.54,18.56-28.62,24.07-.67.33-1.34.66-2.02.97-.34.16-.68.31-1.02.47-.17.08-.34.15-.51.23-.03.01-.03.01-.05.02-.03.01-.04.02-.09.04-1.49.63-2.99,1.23-4.51,1.78-.76.28-1.52.54-2.29.79-.11.04-.17.06-.21.07-.04.01-.1.03-.19.06-.42.13-.83.26-1.25.38-1.55.46-3.11.87-4.68,1.23-.11.03-.58.13-.76.17-.18.04-.63.13-.75.15-.85.17-1.71.33-2.56.47-.73.12-1.47.24-2.21.34-.37.05-.74.1-1.11.15-.12.02-.25.03-.37.05-.02,0-.38.04-.51.06-2.96.31-6.34.47-9,.41-12.45-.27-24.71-3.75-35.59-9.78-10.9-6.04-20.53-14.48-27.81-24.6-3.67-5.1-6.73-10.65-9.09-16.48-2.43-6.03-3.89-12.46-6.93-18.24-3.03-5.76-7.75-10.25-14.17-11.89-4.28-1.1-8.72-1.06-13.07-.37-.01,0-.02-.02-.04-.02-.84-.45-1.68-.71-2.63-.83-1.16-.15-2.36-.09-3.51.09-.93.15-1.91.35-2.82.69-1.61-.07-3.29.58-4.57,1.48-3.06,2.15-6.15,4.26-9.31,6.28-1.7,1.09-3.42,2.11-5.2,3.07-.8.43-1.61.85-2.42,1.26-.47.24-.95.48-1.42.71-.15.08-.31.15-.46.23-.07.03-.22.1-.32.15-.99.46-1.98.91-2.96,1.38-.31.15-.63.3-.94.46-.02,0-.14.07-.24.12-.1.05-.2.09-.21.1-.33.15-.65.3-.98.45-1.69.77-3.4,1.49-5.14,2.14-.47.17-.93.34-1.4.5-.07.03-.12.04-.17.06-.05.01-.11.03-.2.06-.94.29-1.89.58-2.84.83-.82.22-1.64.41-2.46.6-.09.02-.29.06-.39.08.07-.01.19-.04.42-.08-.14.03-.29.05-.43.08-.05,0-.06.01-.02,0-.06.01-.12.02-.18.03-.48.09-.97.17-1.46.25-.9.14-1.81.25-2.72.34-.18.02-.37.03-.55.05-.56.03-1.12.06-1.69.07-1.75.04-3.49,0-4.92-.16-3.2-.35-5.96-.99-8.87-2.05-5.94-2.17-11.3-5.65-15.77-10.13-2.54-2.54-4.82-5.44-6.88-8.38-.75-1.07-1.39-2.19-2.05-3.3-.22-1.17-.89-2.28-1.37-3.37-.63-1.45-1.27-2.9-1.9-4.34-1.09-2.5-2.19-5-3.28-7.49-.22-2.63-.34-5.26-.32-7.89.03-4.29.37-8.58,1-12.82.62-4.15,1.15-8.27,2.13-12.35,6.77-7.42,10.33-17.14,11.27-27.19,1.12-12-1.26-24.33-6.03-35.35-.89-2.07-1.87-4.09-2.89-6.09-.37-1.72-.79-3.43-1.3-5.11-.33-1.1-1.33-1.59-2.42-1.61-5-8.43-10.87-16.38-16.62-24.27-8.42-11.56-17-23.3-22.43-36.63-4.96-12.18-7.79-25.96-5.32-39.05,2.36-12.52,9.87-23.47,21.27-29.38,1.45-.75,2.55-1.26,3.98-1.81.75-.29,1.51-.56,2.28-.83.52-.18.03-.02.56-.18.42-.12.84-.25,1.26-.36,2.76-.76,5.63-1.28,8.62-1.5,6.51-.47,13.07.41,19.28,2.38,13.28,4.2,24.73,12.66,33.94,22.97,8.31,9.31,15.26,19.91,24.62,28.25,4.51,4.02,9.61,7.37,15.3,9.45,6.46,2.36,13.43,2.79,20.2,1.8,13.91-2.04,26.58-9.86,36.06-20.03,9.99-10.72,16.11-24.28,21.47-37.74,5.41-13.59,10.23-27.49,17.72-40.13,6.57-11.1,14.87-21.15,24.38-29.86,9.42-8.63,20.04-15.84,31.43-21.41,3.02-1.47,5.27-2.47,8.25-3.67,1.51-.6,3.03-1.18,4.56-1.73.71-.25,1.41-.5,2.12-.74.41-.14.83-.28,1.25-.42.17-.05.33-.11.5-.16.05-.02.11-.03.16-.05,3.04-.95,6.12-1.8,9.22-2.53.43-.1.85-.2,1.28-.29.16-.04.22-.05.25-.06.04,0,.1-.02.24-.05.8-.17,1.59-.33,2.39-.48,1.6-.31,3.2-.58,4.81-.83,3.1-.47,5.53-.72,8.87-.86,3.05-.13,5.87-.09,8.94.15,6.08.49,12.15,1.81,17.7,4.37,5.41,2.49,10.3,6.32,13.79,11.17,3.73,5.18,5.77,11.43,6.43,17.74,1.42,13.61-3.12,27.05-9.64,38.81-7.33,13.24-16.9,25.12-23.78,38.63-5.92,11.61-9.48,25.08-7.49,38.16.94,6.19,3.3,12.06,7.15,17.02,3.56,4.58,8.3,8.03,13.23,11.01,9.46,5.73,21.13,10.23,27.38,19.9,3.22,4.99,4.59,10.94,4.01,16.84Z" style="fill: #231f20;"/>
  </g>
  <path d="M279.31,26.68c-.23-.86-1.45-1.22-2.17-1.32-2.85-.37-5.87.57-8.2,2.2-11.54,8.06-21.94,17.77-30.8,28.7-4.46,5.51-8.53,11.28-11.95,17.49-3.25,5.9-6.08,12.04-8.44,18.35-1.34,3.56-2.53,7.17-3.56,10.83-.52,1.84-1.01,3.58-1.14,5.49-.12,1.8-.2,3.59-.24,5.39-.01.59,1.65-.04,1.81-.37.81-1.7,1.65-3.39,2.51-5.07.88-1.7,1.61-3.36,2.32-5.14,1.29-3.25,2.68-6.45,4.19-9.61,3.04-6.38,6.51-12.54,10.39-18.45,3.81-5.8,7.85-11.52,12.21-16.92,2.14-2.66,4.38-5.24,6.69-7.75,1.2-1.3,2.43-2.58,3.68-3.84.55-.56,1.11-1.12,1.68-1.67,0,0,0,0,0,0,.02-.02.06-.05.11-.11.14-.14.28-.27.43-.41.33-.32.67-.63,1-.95,5.69-5.34,11.8-10.24,18.27-14.61.6-.4,1.44-1.4,1.22-2.23Z" style="fill: #231f20;"/>
  <path d="M245.57,18.86c-2.33.1-3.96,1.64-5.66,3.03-1.31,1.07-2.6,2.16-3.87,3.29-2.46,2.17-4.84,4.44-7.13,6.79-4.36,4.47-8.37,9.26-12.02,14.33-7.29,10.13-13.64,21.42-17.01,33.48-.92,3.3-1.7,6.65-2.34,10.02-.33,1.76-.62,3.52-.87,5.29-.22,1.59-.74,3.42-.21,4.97.04.13.27.1.33,0,.87-1.27,1.12-2.72,1.56-4.18.45-1.52.94-3.03,1.45-4.53,1.03-3.01,2.17-5.99,3.42-8.92,1.2-2.82,2.63-5.54,3.86-8.34,1.27-2.88,2.66-5.72,4.14-8.51,5.83-10.95,13.27-21,22.01-29.79,2.36-2.37,4.57-4.41,7.18-6.63,1.3-1.1,2.62-2.18,3.97-3.23,1.5-1.17,4.41-2.61,4.51-4.68.09-1.83-1.81-2.47-3.33-2.4Z" style="fill: #231f20;"/>
  <path d="M217.74,18.65c-1.29,0-2.7.48-3.6,1.43-5.35,5.64-10.21,11.72-14.52,18.19-4.21,6.32-8.19,13.08-11.07,20.11-1.64,4-3.01,8.11-4.21,12.26-.16.54,1.44.21,1.62-.23,3.09-7.32,6.72-14.5,10.73-21.36,3.95-6.74,8.45-13.16,13.45-19.17,2.85-3.42,5.86-6.71,9.02-9.85.93-.93-.79-1.38-1.41-1.38Z" style="fill: #231f20;"/>
</svg>