<?xml version="1.0" encoding="UTF-8"?>
<svg id="Layer_1" data-name="Layer 1" xmlns="http://www.w3.org/2000/svg" viewBox="0 0 500 500">
  <g>
    <path d="M297.98,263.17s-.09.05-.13.08c.09-.04.23-.11.29-.15-.04.02-.08.04-.12.06-.02,0-.02.01-.04.02Z" style="fill: #231f20;"/>
    <path d="M103.46,315.88c.07.03.15.05.22.08-.11-.04-.29-.11-.53-.2.1.04.21.08.31.12Z" style="fill: #231f20;"/>
    <path d="M288.47,455.35s.03,0,.05,0c-.07,0-.13,0-.2,0,.05,0,.1,0,.15,0Z" style="fill: #231f20;"/>
    <path d="M131.46,337.18s-.05-.02-.08-.03c.27.11.45.19.54.22-.02,0-.03-.01-.05-.02-.14-.06-.27-.11-.41-.17Z" style="fill: #231f20;"/>
    <path d="M185.79,137.25c-10.03,3.46-20.82,3.39-20.82,3.39-3.39-.35-6.71-.88-10.03-1.79-8.63-2.37-16.58-6.48-24.26-11.01-15.09-8.89-29.85-19.37-47.58-21.93-7.86-1.13-16.12-.83-23.68,1.71-3.94,1.32-7.75,3.11-11.08,5.62-.49.37-.97.76-1.45,1.15-.12.1-.93.78-.51.43-.91.76-1.79,1.53-2.61,2.39-1.42,1.48-2.71,3.1-3.84,4.8-4.2,6.28-6.37,14.27-6.22,21.81.04,2.09-.09,4.18.04,6.29.12,1.87.33,3.74.64,5.6.65,3.93,1.76,7.75,3.19,11.47,3.31,8.59,8.6,16.03,14.08,23.36,5.33,7.14,10.92,14.1,15.64,21.67,1.13,1.8,2.19,3.65,3.2,5.52,4.03,7.73,6.98,16.06,7.42,24.82.08,5.2-.82,10.29-2.19,15.29-.69,2.5-1.48,4.97-2.3,7.44-.41,1.23-.83,2.47-1.25,3.7-.17.49-.32,1-.5,1.49-.11.25-.38.88-.37.85-.22.58-.45,1.16-.67,1.75-3.66,9.59-6.75,20.08-3.64,30.29,6.05,19.92,28.99,25.13,46.78,28.94,5.28,1.13,10.57,2.36,15.67,4.14.64.22,1.28.46,1.92.7.01,0,.02,0,.03.01-.15-.06-.32-.13-.53-.22.2.09.41.17.61.25.32.13.73.3.46.19,1.21.52,2.41,1.08,3.58,1.69,2.11,1.1,4.12,2.38,6.01,3.82,2.78,2.39,5.04,5.16,6.84,8.34,3.86,7.73,5.08,16.38,7.24,24.67,2.02,7.77,4.84,15.32,8.38,22.52,7.3,14.84,17.1,28.27,29.64,39.1,13.58,11.73,29.15,20.55,46.33,25.82,18.66,5.73,39.02,7.09,58.33,4.43,19.47-2.69,39.25-9.05,55.37-20.57,1.94-1.39,4.23-2.91,5.89-4.73-.02.02-.03.04-.05.06,5.15-4.72,9.78-10.37,12.74-16.73,3.11-6.67,4.76-14.12,4.51-21.48-.51-15.15-8.98-28.94-19.12-39.72-10.47-11.14-23.5-19.38-35.77-28.35-1.47-1.07-2.93-2.16-4.38-3.26-.69-.53-1.39-1.06-2.07-1.6-.21-.17-.42-.33-.63-.5,0,0-.13-.1-.22-.17-.09-.07-.21-.18-.22-.18-.15-.12-.89-.72-1.09-.88-.95-.77-2.63-2.21-3.81-3.25-1.39-1.23-2.76-2.5-4.08-3.8-4.96-4.86-9.63-10.3-12.94-16.43-.06-.12-.22-.43-.26-.51-.18-.36-.36-.72-.53-1.08-.37-.78-.72-1.56-1.05-2.36-.59-1.44-1.12-2.9-1.58-4.38-.92-3-1.57-6.09-1.88-9.21-.18-1.85-.21-2.37-.17-4.14.03-1.48.15-2.95.37-4.42.22-1.49.53-2.96.96-4.4.18-.6.38-1.2.6-1.79.06-.14.21-.5.26-.61.15-.34.3-.67.46-1,.65-1.32,1.4-2.59,2.27-3.78.21-.29.59-.72.13-.18.24-.28.48-.57.73-.85.54-.6,1.11-1.18,1.71-1.73.21-.19.48-.53.74-.65-.03.01-.71.55-.25.2.2-.15.4-.31.61-.46.7-.52,1.43-1.01,2.19-1.46.01,0,.07-.04.15-.08-.13.06-.17.07.13-.08.1-.06.2-.12.2-.12,0,0-.02.02-.04.04.29-.14.58-.29.87-.42.39-.18.78-.35,1.17-.51.16-.06.32-.13.48-.19.73-.22,1.46-.45,2.2-.63.33-.08.65-.15.98-.22.18-.03.37-.07.55-.1.8-.12,1.6-.22,2.4-.29.44-.04.87-.07,1.31-.1.21-.01.75-.03.95-.04,3.48-.04,6.96.27,10.41.75.4.06.79.12,1.19.18.06,0,.08.01.11.02.19.03.39.06.58.1.93.16,1.86.33,2.79.5,1.86.35,3.71.73,5.55,1.13,3.58.77,7.14,1.6,10.74,2.3,7.63,1.49,15.39,2.4,23.17,2.31,15.55-.17,31.67-3.92,43.82-14.1,9.5-7.96,16.1-20.13,16.66-32.6.28-6.17-.91-12.21-3.86-17.66-3.09-5.71-8.03-10.26-13.63-13.47-11.85-6.79-25.99-8.26-39.28-10.02-.73-.1-1.46-.2-2.19-.3-1.06-.15-1.18-.17-2.05-.32-1.54-.26-3.08-.55-4.61-.87-3.14-.66-6.25-1.46-9.3-2.45-5.57-1.81-11.2-4.35-15.83-8.2-4.76-3.96-8.21-9.2-9.55-15.27-1.69-7.66.06-15.78,2.95-22.94,5.9-14.68,16.91-27.37,19.02-43.47,1.81-13.75-2.55-28.21-11.64-38.69-9.39-10.83-23.76-16.71-38.01-16.59-7.62.07-15.16,1.63-22.07,4.89-6.58,3.11-12.48,7.52-17.56,12.71-10.22,10.44-17.1,23.44-23.52,36.41-6.67,13.48-19.22,35.18-23.11,38.71s-14.01,10.15-24.04,13.61ZM189.37,140.31c8.04-2.98,12.09-4.77,17.27-8.64,5.55-4.15,10.24-9.3,14.39-14.82,8.48-11.27,14.46-24.19,20.82-36.71,5.92-11.66,12.68-23.27,22.34-32.26,2.29-2.13,4.65-4,7.28-5.72,2.67-1.75,5.1-3.02,8.19-4.23.32-.12.64-.25.96-.36.07-.02.57-.19.66-.22.78-.25,1.58-.49,2.37-.7,1.72-.45,2.61-.64,4.1-.86,3.28-.48,6-.59,9.19-.39,12.58.79,24.58,6.92,32.34,17.01,7.6,9.88,11.08,22.93,9.22,35.27-2.22,14.75-12.1,26.55-17.88,39.92-2.97,6.86-5.05,14.13-4.76,21.67.25,6.36,2.54,12.48,6.56,17.41,7.41,9.08,19.32,13.49,30.42,15.98,5.95,1.33,11.99,2.05,18.02,2.89,5.95.83,11.93,1.81,17.95,3.53,10.84,3.1,21.61,9.32,25.77,20.52,3.86,10.38,1.56,22.12-3.97,31.45-1.48,2.5-2.98,4.57-4.83,6.62-.94,1.05-1.93,2.04-2.97,2.99-1.19,1.09-1.6,1.41-2.99,2.4-2.87,2.04-5.02,3.21-8.18,4.6-.73.32-1.48.63-2.22.92-.37.15-.75.29-1.13.42-.01,0-.12.04-.22.08-.15.05-.39.13-.43.14-1.65.55-3.32,1.02-5.01,1.42-.78.19-1.57.36-2.36.52-.15.03-.31.06-.46.09,0,0,0,0,0,0-.46.08-.93.16-1.39.23-1.66.26-3.34.46-5.02.61-.88.08-1.76.14-2.64.19-.41.02-.81.04-1.22.06-.2,0-.41.02-.61.02-.04,0-.35,0-.5.01-.11,0-.24,0-.24,0-.2,0-.41,0-.61,0-.41,0-.82,0-1.22,0-.89,0-1.77-.03-2.66-.06-7.19-.27-13.2-1.17-20-2.72-13.61-3.1-27.5-7.15-41.52-4.28-6.79,1.39-13.49,4.86-18.14,10.06-3.96,4.43-6.47,9.91-7.43,15.77-1.94,11.75,1.57,24.12,8.04,33.95,7.59,11.53,18.45,20.37,29.33,28.64,5.45,4.14,10.99,8.16,16.37,12.39.56.44,1.13.89,1.69,1.34.02.02.43.35.56.45.36.29.72.59,1.08.89,1.29,1.06,2.55,2.15,3.79,3.26,2.58,2.32,5.05,4.77,7.38,7.34,4.39,4.83,8.29,10.11,11.43,15.84,3.35,6.46,5.62,13.45,5.99,20.74.05,3.94-.52,7.75-1.54,11.57-.01.05-.02.08-.03.13-.06.15-.12.29-.18.43-.19.47-.4.93-.61,1.39-.42.92-.88,1.82-1.37,2.7-.98,1.77-2.09,3.47-3.3,5.1-.1.13-.22.28-.33.43-.25.3-.49.6-.75.9-.66.77-1.35,1.52-2.05,2.25-1.43,1.48-2.94,2.89-4.51,4.21,0,0-.01.01-.02.02-.34.26-.68.53-1.02.79-.37.28-1.83,1.17-.18.29,2.36-1.25-1.61.95-2.35,1.51-1.62,1.24-3.32,2.39-5.04,3.48-.86.55-1.74,1.08-2.62,1.59-.3.17-.6.34-.89.51-1.74.92-3.51,1.79-5.31,2.6-2.06.93-4.15,1.8-6.26,2.61-.43.16-.86.32-1.28.48-.35.12-.83.28-1.01.35-.6.21-1.21.41-1.81.61-4.31,1.4-8.71,2.56-13.15,3.47-.26.05-.52.1-.78.15-1.15.2-2.3.38-3.46.55-2.24.32-4.5.59-6.75.79-2.38.21-4.77.34-7.16.43.27,0,.59,0,.98-.01-.28,0-.57,0-.85.01-.06,0-.12,0-.17,0-.14,0-.29.01-.43.02-.64.02-1.6,0,.28-.02-.6,0-1.2,0-1.8,0-1.27,0-2.55-.03-3.82-.08-4.68-.17-9.35-.62-13.98-1.31-8.22-1.42-16.28-3.65-24.06-6.66-10.33-4.27-20-10-28.76-16.94-10.25-8.42-19.38-18.42-26.69-29.49-1.98-3-3.82-6.09-5.54-9.24-3.98-7.6-7.17-15.6-9.45-23.87-2.61-9.45-4.91-19.45-11.13-27.31-11.66-14.73-31.1-16.97-48.14-21.07-2.26-.54-4.5-1.15-6.72-1.84-1.08-.34-2.16-.7-3.23-1.08-.44-.16-.88-.32-1.32-.49.35.13.09.04-.22-.08-.05-.02-.09-.03-.14-.05-.22-.09-.44-.17-.66-.26.19.07.35.13.49.19-.04-.02-.08-.03-.11-.04-4.05-1.68-7.93-3.74-11.39-6.44-2.72-2.39-5.12-5-6.94-8.13-1.73-3.5-2.67-7.28-2.9-11.18-.05-4.91.83-9.78,2-14.54.63-2.58,1.27-5.18,2.12-7.7.88-2.59,1.76-5.19,2.57-7.8,1.57-5.07,2.89-10.28,3.18-15.6.32-5.85-.43-11.74-2.09-17.35-3.33-11.28-9.83-21.44-16.72-30.85-3.38-4.61-6.88-9.12-10.24-13.75-3.4-4.67-6.38-9.56-9.5-14.41-5.02-7.82-9.52-17.99-9.47-27.57.01-2.42.21-4.83.64-7.21.38-2.13,1.08-4.69,1.77-6.38.9-2.17,2.03-4.25,3.41-6.15.48-.66.26-.39.78-1,.35-.41.71-.82,1.08-1.21.37-.39.75-.77,1.14-1.14.25-.25.5-.49.77-.72.09-.08.14-.12.17-.15.04-.03.1-.07.2-.15.85-.64,1.71-1.26,2.61-1.82.3-.19.6-.36.91-.54.02-.01.06-.03.1-.06.6-.31,1.2-.62,1.82-.89.48-.22.97-.43,1.47-.62.26-.1.53-.2.79-.3h0c1.19-.39,2.4-.74,3.63-1.02.29-.07.59-.13.88-.19.05-.01.07-.02.11-.02.56-.1,1.13-.19,1.69-.27,1.21-.17,2.43-.28,3.65-.35.37-.02.74-.04,1.11-.05.03,0,.09,0,.17,0,.61,0,1.22,0,1.83.01,1.24.03,2.49.09,3.73.22,4.65.48,9.55,1.75,14.19,3.52,5.34,2.04,10.44,4.73,15.39,7.57,19.73,11.31,40.89,27.7,65.1,23.23,0,0,8.54-1.38,16.58-4.36Z" style="fill: #231f20;"/>
  </g>
  <path d="M417.42,405.51c-.49-4.52-1.17-9.01-2.05-13.46-1.54-7.75-3.71-15.37-6.73-22.67-1.43-3.46-3.09-6.8-4.97-10.05-1.86-3.2-3.83-6.63-6.3-9.4-2.88-3.23-6.1-6.2-9.48-8.9-1.66-1.33-3.37-2.59-5.13-3.78-.92-.62-1.84-1.22-2.79-1.8-1.15-.71-2.47-1.1-3.74-1.55-1.01-.36-2.24-.05-3.23.26-.28.09-2.58.87-2.23,1.42.39.6.73,1.28,1.2,1.83.55.64,1.24,1.17,1.85,1.75,1.24,1.19,2.42,2.44,3.56,3.73,2.3,2.63,4.36,5.47,6.22,8.43,1.91,3.05,3.98,5.99,5.81,9.08,1.9,3.21,3.56,6.55,5.14,9.92,3.24,6.91,5.7,14.16,7.53,21.57,2.15,8.71,3.3,17.62,4.79,26.45.83,4.91,1.46,9.84,1.98,14.79.53,5,.78,10.03,2.44,14.81.35,1.01,4.81-.25,5.03-1.15,1.12-4.58,1.32-9.17,1.42-13.87.1-4.63.13-9.26.17-13.89.03-4.54,0-9.03-.5-13.55Z" style="fill: #231f20;"/>
  <path d="M447.65,409.38c-.46-7.23-1.82-14.32-3.36-21.38-3.16-14.46-8.55-28.22-16.01-41-2.1-3.59-4.38-6.92-7.01-10.15-1.3-1.59-2.63-3.15-3.99-4.68-1.5-1.68-3.33-2.93-5.15-4.25-.34-.25-1.67.06-1.46.64.56,1.54.96,3.22,1.78,4.64.88,1.52,1.76,3.03,2.58,4.58,1.69,3.16,3.28,6.38,4.96,9.54,3.36,6.32,6.15,12.89,8.6,19.61,2.48,6.82,4.52,13.78,6,20.88,1.48,7.09,2.08,14.25,2.5,21.46.22,3.86.27,7.72.16,11.6-.06,2.07-.17,4.15-.32,6.22-.08,1.1-.02,2.19.05,3.29.03.5-.03,1.1.09,1.59.14.59.61,1.15.95,1.64.78,1.12,2.92.98,4,.78,1.56-.29,2.97-1,3.93-2.29,2.31-3.1,1.99-7.65,2.03-11.35.04-3.79-.06-7.59-.3-11.38Z" style="fill: #231f20;"/>
  <path d="M466.26,382.1c-.1-2.24-.37-4.38-.81-6.58-.84-4.21-1.93-8.37-3.26-12.44-1.35-4.15-2.95-8.22-4.79-12.18-1.83-3.94-3.79-7.86-6.29-11.41-1.39-1.98-2.85-3.92-4.37-5.8-.8-.99-1.57-2.07-2.54-2.9-1-.86-2.09-1.64-3.15-2.43-.56-.42-2.64.09-2.26,1.03.77,1.9,1.47,3.67,2.55,5.41,1.1,1.78,2.14,3.59,3.13,5.44,2,3.72,4,7.47,5.79,11.3,3.6,7.71,6.29,15.84,8.01,24.18.47,2.27.81,4.56,1.35,6.82.26,1.12.37,2.4.8,3.47.47,1.16,1.19,2.28,1.75,3.41.59,1.19,2.77.56,3.09-.56.31-1.08.61-2.17.9-3.26.3-1.14.16-2.3.11-3.47Z" style="fill: #231f20;"/>
  <g>
    <path d="M190.98,186.46s-.01,0-.02,0c.38-.12,1.64-.5.02,0Z" style="fill: #231f20;"/>
    <path d="M244.87,236.68c-.83-3.12-2.47-5.93-3.82-8.84-1.37-2.96-2.36-6-2.14-9.3.23-3.4,1.45-6.63,2.24-9.91.72-3.04,1.11-6.14.31-9.21-.7-2.7-2.15-5.1-3.99-7.18-6.32-7.16-15.33-8.85-24.52-8.14-2.1-.32-4.23-.44-6.33-.39-1.32.03-1.48.05-2.7.13-.78.05-1.56.13-2.34.23-2.23.3-4.42.72-6.61,1.25-.77.19-1.53.4-2.28.62-.58.17-1.16.35-1.73.53-.68.21-1.33.45-1.99.7-2.18.85-4.29,1.8-6.37,2.87-6.47,3.34-12.28,8.15-16.45,14.14-4.37,6.28-8.18,14.19-6.47,22.06.41,1.92,1.18,3.92,2.47,5.42,1.35,1.58,2.84,2.95,4.51,4.2,2.95,2.21,6.17,4.1,8.71,6.82,3.53,4.39,4.19,9.75,4.67,15.22.48,5.59,1.1,11.06,5.21,15.24,2.28,2.32,5.68,3.61,8.88,3.96,6.5.71,13.09-.53,19.27-2.54,4.53-1.47,8.84-3.61,12.63-6.5,2.37-1.81,4.57-3.86,6.75-5.89,4.84-4.5,9.58-9.33,11.67-15.77,1.02-3.15,1.3-6.52.44-9.74ZM235.14,247.99c-1.62,4.85-5.08,8.51-8.97,11.68-2.18,1.77-4.65,3.24-7.13,4.79-2.57,1.6-5.15,3.16-7.8,4.62-.39-.08-.77-.19-1.15-.29-1.7-.67-3.19-1.64-4.45-2.97-4.02-5.23-3.27-12.48-4.03-18.67-.38-3.15-1.09-6.62-3.09-9.18-2.33-2.99-5.38-5.03-8.6-6.96-3.39-2.03-6.65-4.09-9.34-7-3.56-4.43-4.43-10.15-3.48-15.66.84-3.92,2.54-7.29,5.04-10.43,1.09-1.36,2.18-2.49,3.71-3.84.65-.57,1.32-1.12,2.01-1.64.31-.23.62-.46.93-.68.07-.05.15-.1.2-.13.14-.09.29-.19.43-.28,1.08.14,2.82-.35,3.29-.48,5.11-1.39,9.79-3.01,14.76-3.58,4.45-.51,9.11-.16,13.26,1.63,7.54,3.26,13.53,10.16,12.36,18.79-.65,4.78-2.96,9.2-3.15,14.07-.18,4.68,2.18,8.76,4,12.9,1.9,4.33,2.72,8.73,1.19,13.31Z" style="fill: #231f20;"/>
    <path d="M190.92,186.48s.02,0,.04-.01c0,0,0,0,0,0-.01,0-.03,0-.04.01Z" style="fill: #231f20;"/>
  </g>
</svg>