<?xml version="1.0" encoding="UTF-8"?>
<svg xmlns="http://www.w3.org/2000/svg" viewBox="0 0 500 500">
  <g id="Layer_2" data-name="Layer 2">
    <path d="M250.76,241.86c-.26-4.03-2.18-7.38-4.51-10.58-2.14-2.92-4.6-5.66-5.67-9.2-1.18-3.9-.13-7.92.77-11.76.93-3.95,1.42-8.11-.08-11.99-1.35-3.51-3.96-6.53-7.01-8.7-7.9-5.61-18.23-5.39-27.41-4.06-2.5.36-4.78,1.29-7.18,2.04-.2.06-.51.32-.11.33.44.01.89.05,1.34.09-6.89,1.99-13.46,5.21-18.95,9.85-.84.31-1.69.61-2.51.99-1.85.86-3.19,2.19-4.62,3.6-1.5,1.47-2.98,3.06-4.15,4.81-2.31,3.43-3.77,7.04-4.29,11.14-.97,7.65.43,15.97,5.9,21.73,2.68,2.83,6.04,4.79,9.31,6.84,1.71,1.07,3.45,2.09,5.02,3.36,1.43,1.16,3.18,2.3,4.15,3.92.97,1.61.98,4.06,1.07,5.89.1,2.05.09,4.12.33,6.16.49,4.12,2.77,7.31,6.52,9.07,8.74,4.12,18.81-.88,26.77-4.57,8.71-4.04,17.65-8.61,22.52-17.28,2-3.55,3.07-7.61,2.8-11.7ZM239.56,248.66c-.58,2.81-1.75,5.51-3.38,7.81-.91,1.29-1.96,2.47-3.08,3.58-.22.21-1.03,1-1.17,1.13-.67.63-1.38,1.22-2.1,1.79-2.64,2.09-4.39,3.12-7.33,4.78-2.78,1.57-5.77,3.35-8.56,4.52-2.36.98-4.42,1.38-7.03.75-2.41-.58-4.75-2.06-5.95-4.26-1.73-3.16-1.32-6.87-1.17-10.32.08-1.74.11-3.51-.21-5.23-.27-1.51-.42-3.05-.94-4.5-1.01-2.81-3.34-5-5.54-6.9-2.21-1.91-4.36-3.79-6.02-6.2-3.16-5.18-4.89-11.12-4.71-17.19.25-3.33,1.09-6.54,2.14-9.72.53-1.61,1.21-3.2,1.93-4.73.14-.3.29-.6.44-.9.05-.1.38-.69.44-.81.52-.85,1.08-1.66,1.57-2.54.01-.26.03-.51.04-.77-.13-.21-.3-.44-.43-.69,4.92-4.59,10.64-7.14,16.91-8.49.77-.17,2.59-.83,2.84-1.81.47-.02.95-.06,1.42-.07,3.26-.07,6.57.15,9.7,1.1,5.11,1.55,10.08,5.17,12.31,10.13,1.23,2.72,1.55,5.53.82,8.44-.81,3.22-2.33,6.2-3.29,9.38-.93,3.11-.95,6.16.4,9.16,1.18,2.64,3.05,4.96,4.82,7.22,1.64,2.1,3.32,4.2,4.36,6.68,1.16,2.76,1.38,5.74.78,8.66Z" style="fill: #231f20;"/>
    <g>
      <path d="M292.42,28.4c-.18.04-.36.06-.53.08-.02,0-.05.01-.07.02,1.1-.07.96-.12.6-.1Z" style="fill: #231f20;"/>
      <path d="M490.45,219.28c-.46-3.33-1.17-6.54-2.24-9.72-1.06-3.15-2.37-6.22-3.91-9.17-.37-.7-.75-1.39-1.13-2.07-.63-1.12-1.14-2.49-2.09-3.35.32.49.63.98.95,1.47-3.98-6.21-8.65-11.79-14.45-16.39-6.61-5.26-14.54-9.06-22.67-11.26-9.84-2.67-19.86-3.61-30.03-3.79-9.29-.16-18.56.5-27.84.8-2.7.09-5.4.14-8.09.13-1.42,0-2.85-.02-4.27-.06-.62-.02-1.25-.04-1.87-.06-5.08-.31-10.14-.98-15.1-2.11-.64-.17-1.29-.34-1.93-.48-4.56-1.27-8.95-3.04-13.1-5.31-3.26-1.94-6.35-4.17-9.12-6.77-2.68-2.51-5.14-5.28-7.2-8.33-3.59-5.89-5.3-12.54-5.07-19.42.56-7.7,3.75-15.13,7.05-22.01,3.57-7.43,7.68-14.59,11.03-22.14,3.17-7.16,5.57-14.68,5.53-22.59-.04-8.13-3.25-15.96-8.95-21.78-6.09-6.22-14.31-10.03-22.77-11.71-9.92-1.97-20.18-.67-29.59,2.86-19.97,7.48-34.04,24.49-44.56,42.35-5.84,9.93-10.96,20.26-16.84,30.16-2.85,4.8-5.88,9.52-9.25,13.97-1.5,1.98-3.07,3.91-4.72,5.78-.78.89-1.58,1.76-2.4,2.62-.94.99-1.6,1.62-2.47,2.43-1.85,1.71-3.77,3.34-5.76,4.87-.94.72-1.9,1.42-2.87,2.09-.27.19-.54.37-.81.55-.08.05-.26.17-.38.25-.48.3-.96.61-1.45.9-1,.6-2.02,1.18-3.05,1.72-.57.3-1.15.59-1.73.88-.12.06-.2.1-.26.13-.2.09-.4.17-.6.26-1.12.49-2.25.94-3.4,1.35-.04.01-.19.07-.36.14-.05.02-.11.03-.18.05-.61.18-1.22.37-1.84.53-.51.14-1.03.26-1.54.38-.23-.01-.67.15-.86.18-.57.1-1.14.19-1.71.28-.25.04-.51.07-.77.1-.06,0-.33.04-.59.07-.17.01-.79.07-.82.07-.29.02-.58.03-.87.05-.65.03-1.31.04-1.96.04-.65,0-1.31-.02-1.96-.04-.08,0-.15,0-.21,0,0,0-.01,0-.02,0-.43-.04-.87-.06-1.3-.1-1.37-.12-2.74-.3-4.11-.53-1.2-.2-2.92-.55-3.75-.75-2.25-.55-5.37-1.54-7.88-2.48-21.12-7.9-38.36-23.5-59.59-31.14-9.77-3.51-19.99-4.91-30.31-3.48-4.99.7-10.01,2.01-14.62,4.06-2.21.98-4.34,2.07-6.37,3.38-.04.03-.44.28-.7.44-.36.23-.72.46-1.07.7-.46.31-.91.63-1.35.97-.88.67-1.72,1.38-2.53,2.13-7.4,6.86-11.22,16.48-10.56,26.57.69,10.59,5.35,20.37,11.45,28.89,6.55,9.15,15.04,16.82,22.49,25.21,3.67,4.13,7.3,8.47,10.11,13.24.68,1.15,1.51,2.17,2.21,3.31.76,1.24,1.48,2.51,2.16,3.8,1.25,2.4,2.35,4.89,3.22,7.46,1.66,4.9,2.47,10.08,2,15.25-.02.18.06.31.17.42-.14,1.74-.18,3.48-.06,5.22.3,4.44,2.12,8.61,3.23,12.88.53,2.02,1.12,4.01,1.34,6.09.1,1.02.14,2.05.06,3.08-.08,1.03-.64,2.12.11,2.82-1.18,6.56-2.17,13.17-2.26,19.85-.11,7.55,1.13,15.19,4.95,21.8,3.24,5.61,8,10,13.57,13.25,11.75,6.86,25.8,8.85,39.15,10.01,13.28,1.16,26.62,2.05,38.85,7.47,5.68,2.52,10.88,6.13,14.8,11,4.41,5.48,6.65,12.26,7.6,19.16,2.03,14.64-1,29.69,2.69,44.14,3.58,14,14.05,24.31,26.89,30.33,7.09,3.32,14.77,5.21,22.52,6.12,8.87,1.03,17.75,1.13,26.66.64,8.67-.48,17.36-1.18,25.99-2.19,3.97-.46,7.93-1.05,11.84-1.86,1.34-.28,2.69-.55,4.02-.86.49-.11.97-.23,1.46-.35.28-.07.55-.14.83-.22.26-.07,1.2-.22.14-.08-1.61.21,1.32-.28,1.32-.28.28-.07.55-.15.82-.22.48-.13.96-.27,1.43-.41,1.44-.42,2.86-.9,4.28-1.37,3.82-1.28,7.63-2.86,11.14-4.85,1.88-.78,3.66-1.82,5.37-2.9,1.97-1.25,3.9-2.53,5.74-3.97,3.23-2.54,6.23-5.38,8.6-8.75,4.28-6.09,7.19-12.92,7.55-20.4.36-7.48-2.11-14.11-6.62-20.04-4.52-5.95-10.85-9.99-17.29-13.6-6.98-3.92-14.44-6.91-21.44-10.81-5.54-3.27-10.88-7.26-14.57-12.6-2.69-4.5-4.09-9.63-4-14.88.24-2.62.9-5.16,2.08-7.52.35-.52.72-1.02,1.11-1.5.85,0,1.7,0,2.56.03,8.2.53,16.36,1.56,24.57,2.04,9.93.58,19.88.87,29.83.36,20.63-1.07,41.43-4.73,60.56-12.76,16.54-6.95,31.9-16.64,44.15-29.86,9.99-10.78,17.53-24.26,19.72-38.9,1.05-7.03,1.16-14.3.19-21.34ZM459.59,237.21c-.69,10-3.58,19.56-8.39,28.36-.33.58-.66,1.15-.98,1.73-3.62,6.04-8.04,11.54-13.05,16.49-3.91,3.6-8.1,6.89-12.51,9.85-3.2,1.99-6.5,3.81-9.88,5.46-2.99,1.32-6.03,2.52-9.12,3.6-.42.13-.85.26-1.27.39-1.41.42-2.84.82-4.26,1.19-1.2.31-2.4.61-3.61.89-.41.1-.82.19-1.22.28-5.08.99-10.21,1.73-15.36,2.23-.4.03-.79.06-1.19.09-1.41.1-2.81.19-4.22.26-2.66.14-5.33.22-7.99.26-5.86.09-11.71-.05-17.56-.32-2.16-.12-4.32-.26-6.48-.35,1.02.05,2.03.1,3.05.16-11-.82-21.92-2.53-32.96-1.29-8.21.92-16.37,3.77-23.15,8.5-3.87,2.7-7.04,6.51-8.76,10.92-2.75,7.02-1.39,15.25,1.85,21.84,3.81,7.76,10.32,13.27,17.69,17.54,8.62,5,17.99,8.48,26.68,13.33,6.22,3.67,12.21,8.26,16.29,14.29,2.64,4.44,4,9.4,3.9,14.57-.39,4.86-1.94,9.51-4.3,13.76-.52.84-1.07,1.66-1.59,2.5l.07-.13c-1.56,2.05-2.92,4.22-4.65,6.14-.38.43-.78.85-1.19,1.25.06-.04.09-.07.16-.13-.22.17-.42.38-.63.57-.79.7-1.83,1.38-2.67,2.18-1.08.64-2.16,1.26-3.28,1.84-.37.19-.73.37-1.1.55-.02.01-.03.02-.05.03-.95.43-1.91.83-2.87,1.21-.84.33-1.69.65-2.55.95-.48.17-2.04.56-.05.06-.48.12-.96.27-1.44.41-1.93.55-3.87,1.04-5.83,1.48-.42.09-2.04.39-.23.06-.43.08-.86.17-1.28.26-1.07.21-2.15.41-3.22.59-1.94.34-3.89.64-5.83.91-4.12.59-8.25,1.08-12.38,1.57-2.24.26-4.48.52-6.72.76-1.04.11-2.08.21-3.13.31-.53.05-1.06.1-1.58.15-.03,0-.06,0-.11,0-.32.03-.65.05-.97.08-4.52.36-9.05.58-13.59.57-8.02-.03-16.07-1.07-23.69-3.66-12.73-4.32-24.76-12.98-30.04-25.71-5.69-13.75-2.93-29.17-3.51-43.61-.29-7.09-1.37-14.27-4.64-20.64-2.94-5.73-7.37-10.48-12.78-13.95-11.22-7.22-24.85-9.46-37.88-10.9-6.48-.72-12.97-1.21-19.41-2.26-6.45-1.05-11.94-2.3-18.11-4.83-3.06-1.25-5.5-2.5-7.98-4.13-2.53-1.67-4.87-3.62-6.93-5.85-4.73-5.15-7.58-11.62-8.69-18.49-2.42-14.91,2.52-29.53,3.95-44.26.63-6.47.76-13.16-.43-19.58-.23-1.25-.54-2.47-.89-3.68-.41-3.48-1.27-6.9-2.62-10.15-1.68-4.02-4.03-8.17-7.16-11.26-3.21-3.17-6.84-5.92-10.63-8.35-.31-.2-.63-.39-.95-.58-.71-.9-1.58-1.82-2.52-2.29-.42-.21-.92-.31-1.44-.33-4.31-5.52-9.03-10.73-13.58-16.07-7.16-8.4-14.06-17.36-17.57-27.96-1.68-5.09-2.59-10.46-2.42-15.82.15-4.67,1.59-9.91,3.83-13.62,1.12-1.86,2.49-3.59,4.01-5.14-.01.01.22-.21.36-.35.14-.13.38-.36.37-.34.4-.36.82-.71,1.24-1.05.38-.31.77-.6,1.16-.89.22-.16.45-.31.66-.47.08-.06.13-.1.16-.13,0,0,0,0,0,0,.9-.55,1.81-1.07,2.75-1.54.12-.06.24-.13.37-.2.05-.01.1-.03.15-.05.62-.26,1.23-.53,1.86-.77.45-.17.91-.33,1.36-.5.17-.05.35-.11.52-.16.54-.16,1.09-.31,1.64-.45.28-.07.55-.14.83-.2.1-.02.52-.11.71-.16.04,0,.07-.01.09-.02.22-.04.45-.08.67-.12.56-.1,1.13-.18,1.7-.26.57-.08,1.14-.14,1.71-.2.89-.1-.15-.01-.26.02.35-.11.83-.06,1.2-.08,1.09-.06,2.18-.08,3.27-.07.53,0,1.06.02,1.6.04,0,0,0,0,0,0,.34.03.68.05,1.03.08,5.17.44,9.57,1.6,14.45,3.4,21.85,8.05,38.97,25.15,61.12,32.57,12.05,4.04,24.88,4.92,37.19,1.4,10.73-3.07,20.45-8.92,28.56-16.54,8.17-7.68,14.81-16.55,20.61-26.11,6.2-10.2,11.54-20.89,17.66-31.14,5.56-9.29,11.85-18.18,19.66-25.73.02-.02.14-.13.22-.2.21-.2.43-.4.65-.59.43-.4.87-.79,1.31-1.17,1.03-.9,2.09-1.77,3.16-2.61.97-.76,1.96-1.49,2.97-2.19.49-.34.98-.67,1.47-1,.04-.02.06-.04.11-.06.33-.2.66-.41.99-.61,1.1-.66,2.22-1.29,3.36-1.88.5-.26,1-.5,1.5-.75,0,0,.02,0,.02-.01.35-.16.7-.31,1.06-.46,1.12-.48,2.26-.89,3.4-1.31.2-.06.4-.12.6-.18.7-.21,1.41-.41,2.13-.59.16-.04.31-.08.47-.11-.03,0-.05,0-.08,0,.05,0,.1-.02.15-.02.03,0,.06-.01.09-.02.14-.03.31-.05.44-.06.26-.05.51-.11.76-.15.48-.08.97-.15,1.46-.21.27-.03.54-.06.81-.09,0,0,0,0,0,0,.02,0,.03,0,.05,0,.98-.05,1.96-.1,2.95-.1.55,0,1.1.02,1.64.03.87.02-.17-.04-.26-.01.33-.07.81.06,1.15.09,1.04.09,2.07.22,3.1.38.54.09,1.08.18,1.62.29.21.04.43.09.64.13.16.03.36.08.48.11,2.03.51,4.03,1.16,5.96,1.96,3.93,1.63,6.95,3.42,10.16,6.55,3.02,2.95,5.04,5.92,6.52,9.81,2.99,7.86,2.31,15.36-.28,23.15-1.31,3.93-3.03,7.71-4.93,11.39-1.01,1.97-2.07,3.91-3.16,5.83-.55.98-1.11,1.95-1.67,2.92-.18.31-.36.63-.55.94-.19.3-.55.88-.67,1.11-.16.29-.32.58-.48.87-4.28,7.6-8.84,15.08-11.84,23.31-2.97,8.15-4.63,17.27-2.69,25.85.98,4.31,2.86,8.2,5.22,11.89.27,1.01,1.17,1.87,1.83,2.68.57.68,1.13,1.36,1.73,2.01,1.08,1.18,2.22,2.3,3.42,3.36,2.46,2.18,5.14,4.11,7.96,5.78,3.25,1.92,6.57,3.65,10.1,4.99,4.15,1.57,8.48,2.6,12.85,3.38,17.71,3.14,35.71.95,53.55.89,2.2,0,4.41.02,6.61.1.23,0,.47.02.7.03-.22-.01-.45-.03-.72-.05.28.02.57.03.85.05,0,0,.01,0,.02,0,.21,0,.43.02.64.03.66.03,1.66.12-.39,0,.97.06,1.94.14,2.9.23,4.03.37,8.04.98,12,1.87,4.51,1.18,8.94,2.79,13.05,5,5.78,3.47,10.68,8,14.45,13.6,4.01,6.51,6.69,13.83,8.09,21.35.03-.62.06-1.24.09-1.86-.09,1.39-.08,2.28.19,3.54.14.66.26,1.33.37,2,.23,1.4.42,2.8.57,4.21.28,2.69.39,5.39.36,8.09-.02.5-.04.99-.05,1.49Z" style="fill: #231f20;"/>
      <path d="M335.35,431.05s.04-.05.07-.07c-1.2.96-.4.4-.07.07Z" style="fill: #231f20;"/>
      <path d="M40.69,107.57s.09-.06.13-.09c-.52.33-.4.25-.13.09Z" style="fill: #231f20;"/>
      <path d="M407.33,177.67c-.05,0-.1,0-.15,0,.14,0,.28.02.4.03-.08,0-.17-.01-.25-.02Z" style="fill: #231f20;"/>
    </g>
    <path d="M368.22,339.49s-.21.08-.12.08c.04,0,.21-.08.12-.08Z" style="fill: #231f20;"/>
    <path d="M485.88,171.51c-7.42-11.14-19.27-18.49-31.72-22.9-14.7-5.2-30.54-6.35-46.01-5.73-4.78.19-9.56.51-14.31,1.06-2.38.27-4.83.44-7.15,1-2.32.56-4.63,1.16-6.95,1.72-.15.04-.65.38-.23.41,1.64.12,3.29.26,4.93.41,2.02.18,4,0,6.03-.1,4.21-.22,8.43-.49,12.64-.65,8.26-.31,16.54-.16,24.73.98,13.07,1.82,26.03,6.79,36.23,15.39,2.77,2.33,5.34,4.94,7.68,7.7,1.23,1.45,2.21,3.12,3.44,4.55,1.09,1.27,3.09,1.07,4.64.96,1.97-.15,3.73-.85,5.23-2.13.93-.79,1.58-1.53.84-2.65Z" style="fill: #231f20;"/>
    <path d="M485.13,137.05c-5.61-4.01-11.64-7.4-17.98-10.11-6.44-2.76-13.3-5.16-20.22-6.35-14.44-2.48-29.26-2.33-43.53,1.13-3.76.91-7.45,2.05-11.08,3.39-1.73.64-3.44,1.33-5.12,2.07-.7.31-1.41.63-2.11.96-.2-.09-.5-.08-.58.23,0,.02-.03.05-.04.07-.75.41-1.38,1-2.13,1.42-.36.22.14.33.34.26.82-.29,1.7-.37,2.53-.63.8-.25,1.58-.56,2.38-.82,1.6-.53,3.21-1.01,4.83-1.45,3.02-.82,6.08-1.49,9.17-1.98,3.21-.51,6.44-.85,9.68-1.03.38-.02.77-.04,1.15-.06.6-.03,0,0,.58-.02.57-.02,1.15-.04,1.72-.06-.51.02.57-.01.74-.02,1.65-.03,3.3-.02,4.95.03,3.18.1,6.35.35,9.51.76.21.03,1.43.21.61.08.37.06.75.11,1.12.17.81.13,1.62.27,2.42.42,1.55.29,3.09.61,4.63.97,3.19.75,6.37,1.54,9.51,2.49,1.55.47,3.08.98,4.6,1.52.14.05.52.19.63.23.29.11.58.22.86.33.78.3,1.56.62,2.33.94,6.85,2.87,13.37,6.54,19.35,10.95.92.68,2.83.65,3.86.54,1.44-.16,3.18-.68,4.38-1.52,1.88-1.31,3.15-3.32.91-4.92Z" style="fill: #231f20;"/>
    <path d="M459.33,101.66c-.61-1.3-1.7-1.39-2.99-1.68-1.22-.27-2.44-.52-3.66-.75-2.31-.43-4.64-.79-6.98-1.06-4.81-.56-9.66-.76-14.49-.67-9.41.19-18.87,1.6-27.85,4.43-5.07,1.6-10.01,3.58-14.78,5.95-1.35.67-.14,1.69.95,1.22,16.29-6.94,34.58-9.67,52.18-7.56,2.53.3,5.06.7,7.56,1.2,1.15.23,2.29.49,3.43.76,1.58.38,2.98.93,4.61.44.75-.23,2.56-1.18,2.04-2.29Z" style="fill: #231f20;"/>
  </g>
  <g id="Layer_3" data-name="Layer 3">
    <path d="M490.54,10.35c.05-.1.09-.2.11-.31,0-.02,0-.03,0-.04,0,0,0,0,0-.01,0-.09-.01-.18-.02-.27-.04-.09-.09-.17-.14-.26,0,0,0,0,0,0,0-.01-.01-.02-.02-.03,0,0,0,0,0,0,0-.01-.01-.02-.02-.04.13-.2.24-.41.3-.64.02-.09-.1-.13-.16-.13-.08,0-.21.04-.24.12-.04.12-.1.24-.17.35-.01.02-.03.04-.04.07-.07-.04-.15-.08-.23-.11-.01,0-.02,0-.03,0-.01,0-.03,0-.05-.01,0,0-.01,0-.02,0,0,0,0,0,0,0-.06-.02-.13-.03-.23-.05-.12-.03-.15-.04-.24-.05-.03,0-.05,0-.08-.01.05.01.1.02.14.03-.21-.05-.42-.07-.63-.04-.07,0-.13.02-.19.03,0,0,0,0,0,0,.05,0,.11-.02.16-.03-.13.02-.25.03-.38.03.01,0,.03,0,.04,0-.05,0-.1,0-.15,0-.02,0-.03,0-.05,0-.15,0-.29,0-.44.03-.11-.16-.21-.31-.3-.48-.07-.16-.14-.33-.18-.51-.02-.1-.03-.2-.05-.3-.01-.06-.02-.13-.03-.19,0-.15,0-.31.03-.46.02-.19-.08-.35-.23-.44,0,0-.02-.01-.03-.02-.2-.12-.43-.11-.65-.07-.03,0-.06.01-.09.02-.21.06-.42.17-.57.33-.05.06-.09.13-.14.2-.14.21-.22.45-.28.69-.02.09-.04.18-.05.27-.01.1,0,.21.01.31,0,.05,0,.09.01.14.06.43.24.84.47,1.2.1.16.23.29.37.42-.01.02-.03.04-.05.07-.08.15-.13.32-.17.49-.04.16-.04.34-.01.5,0-.08-.01-.17-.02-.25-.02.08-.02.17-.02.26,0,.17,0,.34.04.5.01.09.04.18.07.26.05.15.13.31.21.45-.03-.07-.07-.14-.1-.21.08.19.18.39.31.55.09.11.2.21.31.3.05.04.11.08.17.12.29.16.57.26.9.3.04,0,.08,0,.11,0,.14,0,.28.01.42,0,.18-.02.36-.05.54-.1.34-.1.67-.25.96-.46.19-.14.38-.31.52-.51.09-.13.19-.26.27-.4.07-.13.11-.28.14-.42.04-.14.05-.29.05-.44-.01-.24-.03-.46-.13-.68-.02-.03-.04-.07-.06-.1Z" style="fill: #231f20;"/>
  </g>
</svg>