<?xml version="1.0" encoding="UTF-8"?>
<svg xmlns="http://www.w3.org/2000/svg" viewBox="0 0 500 500">
  <g id="Layer_3" data-name="Layer 3">
    <path d="M490.54,10.35c.05-.1.09-.2.11-.31,0-.02,0-.03,0-.04,0,0,0,0,0-.01,0-.09-.01-.18-.02-.27-.04-.09-.09-.17-.14-.26,0,0,0,0,0,0,0-.01-.01-.02-.02-.03,0,0,0,0,0,0,0-.01-.01-.02-.02-.04.13-.2.24-.41.3-.64.02-.09-.1-.13-.16-.13-.08,0-.21.04-.24.12-.04.12-.1.24-.17.35-.01.02-.03.04-.04.07-.07-.04-.15-.08-.23-.11-.01,0-.02,0-.03,0-.01,0-.03,0-.05-.01,0,0-.01,0-.02,0,0,0,0,0,0,0-.06-.02-.13-.03-.23-.05-.12-.03-.15-.04-.24-.05-.03,0-.05,0-.08-.01.05.01.1.02.14.03-.21-.05-.42-.07-.63-.04-.07,0-.13.02-.19.03,0,0,0,0,0,0,.05,0,.11-.02.16-.03-.13.02-.25.03-.38.03.01,0,.03,0,.04,0-.05,0-.1,0-.15,0-.02,0-.03,0-.05,0-.15,0-.29,0-.44.03-.11-.16-.21-.31-.3-.48-.07-.16-.14-.33-.18-.51-.02-.1-.03-.2-.05-.3-.01-.06-.02-.13-.03-.19,0-.15,0-.31.03-.46.02-.19-.08-.35-.23-.44,0,0-.02-.01-.03-.02-.2-.12-.43-.11-.65-.07-.03,0-.06.01-.09.02-.21.06-.42.17-.57.33-.05.06-.09.13-.14.2-.14.21-.22.45-.28.69-.02.09-.04.18-.05.27-.01.1,0,.21.01.31,0,.05,0,.09.01.14.06.43.24.84.47,1.2.1.16.23.29.37.42-.01.02-.03.04-.05.07-.08.15-.13.32-.17.49-.04.16-.04.34-.01.5,0-.08-.01-.17-.02-.25-.02.08-.02.17-.02.26,0,.17,0,.34.04.5.01.09.04.18.07.26.05.15.13.31.21.45-.03-.07-.07-.14-.1-.21.08.19.18.39.31.55.09.11.2.21.31.3.05.04.11.08.17.12.29.16.57.26.9.3.04,0,.08,0,.11,0,.14,0,.28.01.42,0,.18-.02.36-.05.54-.1.34-.1.67-.25.96-.46.19-.14.38-.31.52-.51.09-.13.19-.26.27-.4.07-.13.11-.28.14-.42.04-.14.05-.29.05-.44-.01-.24-.03-.46-.13-.68-.02-.03-.04-.07-.06-.1Z" style="fill: #231f20;"/>
  </g>
  <g id="Layer_5" data-name="Layer 5">
    <g>
      <path d="M480.72,206.71c-.62-14.91-7.17-29.31-17.34-40.13-5.13-5.46-11.21-9.91-17.94-13.19-7.58-3.7-15.88-5.5-23.68-8.64-7.35-2.96-13.59-7.51-18.29-13.93-4.41-6.03-7.34-13.06-9.72-20.1-4.73-14-7.29-28.96-15.03-41.78-3.61-5.98-8.3-11.43-14.45-14.89-7.18-4.04-15.32-5.06-23.41-3.95-17.15,2.36-31.61,13.26-41.55,26.98-10.12,13.97-16.6,30.23-27.03,43.98-4.73,6.24-9.98,11.75-16.3,16.02-.37.25-.74.49-1.11.73-.21.13-.42.26-.62.39-.02.01-.03.02-.06.03-.87.51-1.75.99-2.64,1.45-.39.2-.78.39-1.18.58-.08.04-.17.09-.26.13-.05.01-.09.03-.14.05-.87.36-1.75.69-2.63,1.01.03,0,.05,0,.09-.01-.06,0-.12.03-.17.05-.02,0-.05.02-.07.03-.06.02-.11.04-.16.05-.04.02-.09.03-.13.04-.42.12-.84.24-1.26.35-.29.08-.59.16-.89.24-.06,0-.15.02-.32.05-.25.04-.5.09-.74.13-.5.08-1,.15-1.5.22-.01,0-.03,0-.05,0-.15.02-.39.04-.46.05-1.07.09-2.14.13-3.21.13-.12,0-.24,0-.36,0-.1,0-.26-.01-.32-.01-.46-.03-.93-.05-1.39-.08-1.06-.08-2.11-.19-3.16-.34-1.98-.28-3.48-.62-5.53-1.18-3.92-1.07-7.72-2.53-11.44-4.16-7.78-3.42-15.2-7.6-22.9-11.19-16.74-7.81-35.39-11.17-53.7-7.73-16.62,3.12-32.48,11.44-43,24.92-4.74,6.08-8.35,13.04-10.17,20.54-2.25,9.24-2.03,18.9-1.21,28.31.87,9.92,2.13,19.81,3.21,29.7,1.09,9.99,2.22,19.96,3.43,29.94.72,5.92,1.47,11.85,2.2,17.77-.66,2.04-1.37,4.06-2.09,6.06-3.32,9.22-7.34,18.17-11.51,27.03-8.45,17.95-17.18,35.97-22.58,55.14-2.73,9.68-4.52,19.53-4.77,29.59-.21,8.31.64,16.6,2.78,24.64,3.95,14.81,12.29,29.39,25.02,38.31,14.24,9.98,32.06,12.3,48.93,9.36,17.73-3.09,34.7-11.14,48.33-22.88,13.55-11.67,23.69-26.76,32.06-42.44,8.46-15.85,15.21-32.53,22.77-48.81,1.63-3.51,3.37-6.97,5.27-10.33.96-1.7,1.97-3.38,3.03-5.03.12-.18.23-.36.35-.54.27-.4.53-.8.81-1.19.59-.85,1.18-1.69,1.8-2.52,2.23-3,4.67-5.86,7.39-8.44.29-.28.59-.55.89-.83.05-.05.13-.12.2-.19.04-.02.07-.05.11-.08.71-.58,1.41-1.15,2.14-1.7.72-.54,1.46-1.05,2.22-1.54.06-.04.12-.08.18-.11.35-.2.69-.4,1.05-.58.39-.21.79-.41,1.18-.6.01,0,.03-.02.05-.03.27-.11.53-.22.8-.32.31-.04.93-.33,1.13-.38.2-.06.41-.1.61-.15.06-.01.13-.02.19-.04.4-.07.92-.07,1.34-.17.02,0,.04,0,.07,0,.41-.02.81-.04,1.22-.05.09,0,.19,0,.28,0,.53.06,1.08.05,1.61.11.42.04.85.09,1.27.15.18.03,1.67.32.97.15-.67-.16.53.13.77.19.52.13,1.04.27,1.56.43.86.26,1.71.56,2.54.89.45.18.89.36,1.33.56.22.1.44.2.66.3.05.02.41.2.56.28.12.07.27.14.31.16.16.09.32.17.48.26.42.24.84.48,1.26.73.89.54,1.76,1.11,2.61,1.71,3.23,2.29,6.16,4.98,8.84,7.89,2.62,2.84,4.99,5.89,7.2,9.05,8.65,12.66,14.64,27.25,25.61,38.23,5.51,5.51,12.35,9.82,19.96,11.73,8.97,2.25,18.6,1.8,27.42-.94,8.62-2.67,16.74-7.18,22.48-14.28,4.75-5.88,7.86-13.1,8.86-20.59.5-3.72.55-7.51-.01-11.22-.61-4.09-2-8-3.54-11.82-3.02-7.52-7.23-15.55-6.36-23.91.74-7.16,5.09-13.46,10.43-17.5.75-.57,1.51-1.11,2.3-1.63.31-.21.63-.41.95-.61-.04.03.73-.44.88-.52.81-.46,1.64-.9,2.48-1.32.39-.19.78-.38,1.17-.56.05-.02.07-.03.11-.05.26-.11.52-.23.79-.34,2.11-.88,4.25-1.66,6.42-2.38.06-.02.3-.1.47-.15.17-.05.41-.13.47-.15.51-.16,1.02-.32,1.53-.47,1.17-.36,2.34-.71,3.51-1.05,8.84-2.61,17.79-5.19,25.76-9.96,6.73-4.02,12.76-9.16,17.66-15.3,9.42-11.79,14.72-26.64,14.09-41.78ZM460.09,246.67c-4.25,5.75-9.19,10.54-15.06,14.43-.31.2-.62.4-.93.6-.19.12-.39.25-.59.37-.78.47-1.58.91-2.38,1.34-.76.41-1.53.79-2.31,1.16-.22.11-.45.21-.67.31,0,0-.18.08-.31.14-.13.05-.31.13-.31.13-.35.15-.7.29-1.05.44-2.01.82-4.06,1.54-6.13,2.22-.28.09-.56.18-.84.26-.51.16-1.02.31-1.53.47-1.02.31-2.05.61-3.07.91-8.49,2.48-17.23,4.84-24.93,9.34-6.64,3.88-12.53,8.74-16.22,15.58-3.76,6.97-3.11,14.85-.68,22.15,2.46,7.42,6.31,14.45,7.47,22.26,1.04,7.02-.04,14.23-2.96,20.68-1.47,3.24-3.14,5.93-5.39,8.62-1.16,1.39-2.42,2.68-3.76,3.89-.01.01-.06.05-.12.1-.11.09-.28.23-.33.27-.34.28-.68.55-1.03.81-.72.55-1.46,1.06-2.22,1.55-.08.05-.18.12-.27.19-.05.03-.11.06-.2.11-.34.19-.67.38-1.01.56-.4.21-.79.42-1.2.61-.17.08-.35.17-.52.25-.75.31-1.5.61-2.26.88-.03,0-.04.02-.07.02-.44.13-.89.26-1.33.38-.35.09-.7.17-1.06.26-.05,0-.11.01-.14.02-.44.08-.87.15-1.31.21-.13.02-.53.07-.84.11-.26.02-.58.05-.7.06-.44.03-.89.06-1.33.08-.44.02-.89.03-1.33.03-.14,0-.28,0-.42,0,0,0,0,0-.01,0-1.65-.09-3.27-.29-4.91-.52-.14-.03-.7-.12-.86-.16-.43-.1-.86-.2-1.29-.31-.92-.24-1.83-.52-2.72-.83-.84-.29-1.66-.61-2.48-.96-.41-.18-.81-.36-1.21-.55,0,0-.15-.07-.25-.12-.14-.07-.54-.28-.59-.31-1.57-.85-3.09-1.81-4.54-2.86-5.45-3.94-9.84-9.1-13.67-14.58-6.62-9.7-11.54-20.42-18.28-30.04-6.6-9.42-15.22-18.31-26.47-21.86-13.09-4.14-28.03-.48-39.05,7.29-9.45,6.66-16.27,16.45-21.73,26.48-5.93,10.92-10.55,22.56-15.66,33.87-5.33,11.79-10.92,23.5-17.71,34.54-1.78,2.9-3.03,4.81-4.99,7.59-1.87,2.65-3.82,5.23-5.89,7.73-2,2.43-4.09,4.79-6.28,7.04-.97.99-1.96,1.96-2.97,2.91-.46.43-.93.86-1.4,1.28-.28.25-.56.5-.84.75-.14.12-.28.24-.42.36-2.23,1.89-4.55,3.68-6.94,5.36-1.15.8-2.31,1.58-3.49,2.34-.54.34-1.09.66-1.62,1.01.05-.03.09-.06.13-.09-.38.22-.76.45-1.15.66-2.16,1.23-4.37,2.31-6.6,3.39.34-.17-1.19.55-1.64.73-.58.24-1.16.47-1.74.7-1.02.4-2.05.76-3.08,1.12-.4.13-1.21.39-1.55.49-.59.17-1.19.34-1.78.49-.71.19-1.43.37-2.15.53-.03,0-.06.01-.09.02-.11.02-.2.04-.26.05-1.31.26-2.63.48-3.96.65-.68.09-3.39.31-.5.08-.72.06-1.44.13-2.16.17-1.3.08-2.61.12-3.91.12.1,0,.19.01.31.02-.36-.02-.72-.02-1.07-.04-.71-.03-1.43-.08-2.14-.13-1.31-.11-2.61-.26-3.9-.46-.35-.05-.71-.11-1.06-.17,0,0-.01,0-.02,0-.17-.03-.55-.11-.62-.12-.47-.1-.93-.21-1.4-.32-2.69-.66-5.33-1.52-7.89-2.6-.56-.24-1.12-.49-1.68-.74-.22-.1-.44-.21-.66-.32.32.15-.44-.21-.57-.29-1.27-.67-2.52-1.39-3.73-2.17-4.57-2.92-8.73-6.56-12.34-10.59-1.74-1.93-3.33-3.98-4.83-6.1-7.79-11.5-12.2-25.22-13.13-39.05-.33-4.94-.26-9.89.11-14.82.12-1.23.28-2.47.33-3.7,1.69-17.28,6.99-33.95,13.22-50.08,2.25-5.82,4.57-11.6,6.86-17.4,1.4-1.34,2.61-2.88,3.83-4.39,1.33-1.65,2.63-3.33,3.86-5.06,2.47-3.49,4.8-7.24,6.22-11.3.44-1.26.79-2.55,1.07-3.85.41-.4.66-.86.6-1.4-.05-.43-.09-.86-.14-1.29.25-2.01.31-4.05.18-6.09-.27-4.29-1.23-8.55-2.07-12.77.01-.3.04-.61.04-.88,0-1.12,0-2.24-.04-3.36-.07-2.34-.22-4.68-.44-7.01-.02-.24-.45-.24-.89-.13-.2-1.88-.4-3.76-.6-5.64,0-.18,0-.36,0-.54,0-.09-.03-.17-.08-.24-.67-6.35-1.36-12.7-2.12-19.05-1.12-9.37-2.25-18.74-3.26-28.13-.96-8.87-1.65-17.93-.23-26.79,1.15-7.23,3.78-14.23,7.84-20.34,1.96-2.96,4.25-5.72,6.73-8.26,2.53-2.58,4.61-4.34,7.61-6.47.7-.5,1.42-.98,2.15-1.45.36-.23.73-.46,1.09-.69.22-.13.45-.26.67-.39,1.55-.89,3.14-1.72,4.76-2.48.13-.06.27-.12.41-.19.39-.16.78-.33,1.17-.49.8-.33,1.6-.64,2.42-.93.47-.17.94-.32,1.41-.49.01,0,.01,0,.03,0,.21-.06.42-.13.63-.19,1.06-.32,2.13-.6,3.2-.87.38-.09.77-.18,1.15-.27.08-.01.74-.15.98-.2,1.08-.21,2.17-.39,3.27-.54.51-.07,1.02-.14,1.53-.2.12-.01.25-.03.37-.04.11-.01.32-.03.39-.04,1.1-.09,2.21-.18,3.31-.23.96-.04,1.92-.07,2.88-.08.56,0,1.13,0,1.69,0,.03,0,.08,0,.13,0,.37.01.74.02,1.11.04,2.07.09,4.14.27,6.2.52,8.24,1.01,16.2,3.43,23.77,6.82,7.28,3.26,14.24,7.19,21.41,10.67,7.12,3.45,14.48,6.38,22.34,7.61,8.55,1.34,17.41.2,25.49-2.85,14.7-5.56,25.77-17.33,34.08-30.31,8.79-13.75,15.12-29.09,25.51-41.79,2.3-2.82,4.99-5.7,7.64-7.94,1.43-1.21,2.92-2.35,4.47-3.41,1.72-1.19,2.38-1.6,4.09-2.53.79-.43,1.59-.84,2.4-1.23.14-.06.53-.25.7-.33.41-.18.82-.35,1.23-.52.82-.33,1.65-.63,2.49-.92.01,0,.04-.01.08-.02.13-.04.31-.09.37-.11.48-.14.96-.27,1.45-.4.3-.08.6-.15.91-.22-.06.02.53-.11.82-.16.43-.08.86-.15,1.29-.21.24-.03,1.61-.17.74-.1.8-.06,1.6-.12,2.4-.14.38,0,.76-.01,1.14,0,.1,0,.26.01.3.01.25.02.49.03.74.04,13.91.97,23.65,12.04,29.37,23.98,6.17,12.88,8.16,27.1,13.1,40.42,2.46,6.64,5.66,13.08,10.29,18.48,5.04,5.87,11.62,9.67,18.79,12.39,7.39,2.8,15.19,4.59,22.3,8.12,6.2,3.08,11.82,7.41,16.57,12.43,9.62,10.18,15.78,23.66,16.82,37.65,1.03,13.96-3.55,28.25-11.84,39.46Z" style="fill: #231f20;"/>
      <path d="M154.6,443.84s0,0,0,0c.36-.21,1.41-.95,0,0Z" style="fill: #231f20;"/>
      <path d="M247.33,141.44c-.74.1-.61.17-.32.11.08-.03.16-.05.24-.07.03-.01.06-.02.09-.03Z" style="fill: #231f20;"/>
      <path d="M123.97,453.06s.03,0,.05,0c-1.72-.1-.51,0-.05,0Z" style="fill: #231f20;"/>
    </g>
    <path d="M302.15,245.05c-4.25-10.08-13.82-16.35-18.94-25.84-1.28-2.37-2.19-4.89-2.66-7.54-.5-2.8-.6-5.67-1.31-8.43-.59-2.33-1.74-4.5-3.36-6.15.77-.03,1.53-.05,2.3-.08.02,0,.18-.06.11-.08-1.25-.34-2.53-.64-3.76-1.06-.06-.02-.11-.03-.17-.05-1.36-.95-2.97-1.56-4.79-1.7-.93-.07-1.93,0-2.91.2-1.73-.29-3.47-.54-5.23-.72-6.45-.67-12.95-1.65-19.45-1.56-10.29.13-24.82,4.12-26.63,16.13-.77,5.13.59,10.29,1.23,15.36.34,2.67.57,5.43.17,8.11-.38,2.56-1.36,4.98-2.64,7.22-2.77,4.84-6.81,8.78-9.75,13.5-2.81,4.52-4.79,10.14-2.86,15.39,3.22,8.73,14.04,11.57,22.39,11.07,6.13-.37,12.03-2.07,18-3.37,5.92-1.29,11.73-1.42,17.77-1.1,6.32.33,12.68.78,18.98-.06,5.15-.69,10.24-2.36,14.73-4.98,3.8-2.22,7.24-5.35,9.09-9.41,2.16-4.75,1.69-10.14-.3-14.85ZM297.3,256.34c-.45,4.13-2.65,7.83-5.82,10.46-1.45,1.21-3,2.12-4.68,2.9-.49.23-1.49.62-2.32.91-.09.03-.13.05-.15.06-.05.01-.1.03-.16.05-.22.07-.45.13-.67.19-.22.06-.45.12-.67.18,0,0-.48.11-.61.15-4.69,1-9.93.74-15.01.47-5.95-.32-11.9-.68-17.84.03-5.66.68-11.12,2.34-16.7,3.45-4.45.89-8.76,1.34-13.18.18-3.75-.99-7.4-2.93-9.85-6-2.95-3.7-3.2-8.6-1.64-12.94,1.79-4.99,5.29-8.96,8.45-13.11,2.97-3.9,5.73-8.09,6.37-13.06.62-4.87-.54-9.58-1.11-14.38-.57-4.74-.57-9.82,2.14-13.96,1.16-1.78,2.8-3.26,4.62-4.35.33-.2.75-.42,1.15-.61.19-.09.38-.18.57-.26.08-.03.3-.12.33-.13.29-.1.58-.21.87-.31.03,0,.06-.01.11-.03.23-.06.46-.12.69-.18.11-.02.46-.1.62-.13,5.33-.97,11.15-.1,16.58.34,3.03.24,6.06.49,9.1.73,1.42.11,2.85.16,4.29.19.06.01.12.03.18.03.24.03.48.02.74-.01,1.32.02,2.63.03,3.95.04.41.21.8.45,1.17.72,1.84,1.34,2.98,3.17,3.63,5.33,1.5,5,1.06,10.32,3.1,15.21,3.82,9.16,12.27,15.15,17.5,23.37,2.71,4.26,4.84,9.33,4.29,14.48Z" style="fill: #231f20;"/>
    <path d="M77.75,274.91c-1.15-5.25-3.77-10.88-8.46-13.84-2.59-1.63-5.66-2.19-8.68-2.01-2.07.12-4.2.55-6.14,1.3-.87.34-1.76.74-2.47,1.34-4.82,1.97-9.12,5.18-12.19,9.41-5.82,8.01-7.07,20.36-.34,28.28,7.08,8.35,20.68,6.07,28.96.84,8.53-5.4,11.41-15.76,9.33-25.32ZM63.41,298.58c-.56.51-1.26,1.06-1.64,1.31-.33.21-.67.41-1.01.61.13-.09-.7.33-.92.44-.08.03-.15.05-.23.08-.11,0-.22.05-.34.1,0,0-.02,0-.03,0-.13.02-.27.04-.4.07-.04,0-.07,0-.13,0-.05,0-.39.02-.56.03-.12,0-.25,0-.29,0-.22,0-.44-.01-.66-.02-.54-.03-.27,0-.69-.07-.87-.14-1.75-.32-2.58-.63-1.71-.63-3.27-1.7-4.57-2.95-6-5.77-7.46-15.52-4.88-23.22,1.4-4.19,4.03-7.94,7.7-10.45.23-.15.46-.28.69-.43.8-.11,1.61-.34,2.31-.68.29-.14.41-.2.43-.23.24-.06.48-.11.71-.18.2,0,.43,0,.42,0,.36.03.74.1,1.1.18,1.9.44,3.58,1.53,4.98,2.87,2.95,2.84,4.72,6.83,5.72,10.75,1.92,7.56.93,16.89-5.13,22.41Z" style="fill: #231f20;"/>
    <path d="M46.95,329.38c-.57-3.63-2.78-6.83-5.76-8.94-3.49-2.48-7.7-3.22-11.85-2.28-.28.06-2.97,1.07-1.86,1.25.16.03.32.05.47.08-3.14.6-6.22,1.91-8.69,3.92-2.71,2.21-4.33,5.16-4.78,8.63-.42,3.3.31,6.8,2.23,9.53,4.66,6.62,13.9,6.44,20.72,3.69,6.32-2.55,10.58-8.97,9.5-15.89ZM37.13,342.48c-.74.72-2.01,1.58-2.62,1.89-.06.03-.63.23-.14.06-.11.04-.19.07-.23.09-.05,0-.13,0-.24,0,.47-.03-.42.01-.19,0-.38,0-.77.02-1.15,0-2.61-.17-5.23-1.32-7.26-2.95-4.25-3.4-5.75-9.82-3.72-14.83,1.01-2.5,2.67-4.81,5.26-5.84,1.68-.66,3.55-.62,5.39-.37.82.3,1.63.67,2.4,1.14,2.34,1.42,4.25,3.48,5.36,5.98,2.16,4.87.97,11.09-2.87,14.81Z" style="fill: #231f20;"/>
    <path d="M33.46,374.84c-.58-2.53-2.65-4.58-4.76-5.95-1.08-.7-2.28-1.19-3.52-1.54-1.56-.44-2.95-.35-4.51.02-.28-.17-.67-.23-.98-.25-2.52-.14-5.24,1.44-6.97,3.2-1.5,1.51-2.61,3.41-3.04,5.51-.88,4.26.98,8.57,4.35,11.17,4.07,3.14,9.65,2.69,13.82-.07,3.92-2.6,6.71-7.28,5.61-12.09ZM27.4,379.82c-.26,1.62-.94,3.12-2.01,4.37-.4.47-1.04,1.01-1.4,1.25-.19.12-.38.24-.57.34.11-.06.41-.17-.09.04.02,0-.21.08-.36.14-.1.03-.27.08-.37.11-.17.03-.42.07-.4.07-.18.02-.37.04-.55.06-.09,0-.14.01-.19.02-.02,0-.06,0-.12,0-.23,0-.47,0-.7-.02-.81-.07-1.63-.28-2.38-.58-3.27-1.3-6.09-4.7-5.56-8.36.28-1.94,1.16-3.8,2.47-5.26.59-.66,1.28-1.23,2.05-1.68.31-.18.58-.31.95-.44,0,0,.23-.06.26-.07.3-.09.59-.19.88-.3.59-.29.73-.36.42-.23.07-.04.15-.08.23-.12.12.09.24.17.38.24.38.17.82.22,1.22.36.75.27,1.49.68,2.12,1.17,1.27.99,2.31,2.32,2.89,3.83.63,1.64,1.11,3.31.83,5.08Z" style="fill: #231f20;"/>
    <path d="M225.81,394.32c-4.71,6.15-7.89,13.32-12.02,19.85-3.96,6.25-7.84,12.46-12.4,18.3-8.8,11.25-19.13,21.42-30.53,30.28-3.15,2.45-6.42,4.75-9.77,6.91-3.35,2.16-6.68,4.42-10.2,6.3-.4.21.14.36.37.26,3.58-1.53,7.18-2.95,10.64-4.74,3.47-1.79,6.87-3.71,10.19-5.75,6.66-4.08,12.95-8.75,18.89-13.81,11.73-9.98,21.73-21.96,29.85-35.04,2.21-3.56,3.99-7.44,5.72-11.24,1.68-3.67,3.21-7.44,3.28-11.53.04-1.87-3.41-.59-4.03.2Z" style="fill: #231f20;"/>
    <path d="M232.85,424.62c-.08-.89-1.6-1.08-2.19-1.07-1.09.03-2.28.41-3.07,1.2-1.77,1.77-2.65,4.5-3.83,6.7-1.17,2.17-2.4,4.31-3.7,6.41-2.52,4.1-5.17,8.14-8.04,12-5.63,7.56-12.29,14.37-19.23,20.73-3.89,3.56-8.09,6.76-12.17,10.09-.35.29.12.43.38.31,4.73-2.11,9.06-4.79,13.31-7.75,4.29-2.99,8.36-6.21,12.13-9.84,7.22-6.95,13.95-14.82,19.14-23.41,1.43-2.37,2.78-4.79,4.04-7.25.66-1.29,1.3-2.59,1.92-3.9.65-1.39,1.44-2.66,1.3-4.23Z" style="fill: #231f20;"/>
    <path d="M238.67,446.19c-.79.74-1.46,1.37-2,2.32-.44.79-.89,1.57-1.36,2.34-.92,1.55-1.89,3.08-2.89,4.59-1.92,2.9-3.83,5.79-5.95,8.54-4.33,5.62-9.27,10.84-14.37,15.77-1.35,1.31-2.74,2.57-4.17,3.79-.71.6-1.57,1.15-2.01,1.99-.39.75-.2,1.43.69,1.58,1.82.3,3.52-1.19,4.91-2.15,1.49-1.03,2.96-2.1,4.4-3.21,2.95-2.26,5.77-4.65,8.36-7.33,5.05-5.22,9.68-10.97,13.54-17.14,1.04-1.66,1.97-3.39,2.87-5.13.44-.84.86-1.68,1.28-2.54.53-1.08.73-1.84.7-3.03-.05-2.1-3.05-1.29-4-.4Z" style="fill: #231f20;"/>
  </g>
</svg>